# 
# Generated by Sweet Home 3D - Ter fev 22 23:27:55 BRT 2022
# http://www.sweethome3d.com/
# 
mtllib mesa.mtl
g ground_1
usemtl ground_1
v 171.5 0.0 373.56018
v 171.5 0.0 448.56018
v 321.5 0.0 448.56018
v 321.5 0.0 373.56018
vn 0.0 1.0 0.0
vn 0.0 0.0 0.0
f 1//1 2//1 3//1
f 1//1 3//1 4//1
g Frame_2
usemtl black
v 176.75 66.1 375.93018
v 316.25 66.1 375.93018
v 316.25 70.9 375.93018
v 176.75 70.9 375.93018
v 176.75 66.0 374.03018
v 316.25 66.0 374.03018
v 316.25 66.0 375.83017
v 176.75 66.0 375.83017
v 316.25 66.1 373.93018
v 316.25 70.9 373.93018
v 316.25 71.0 374.03018
v 316.25 71.0 375.83017
v 176.75 71.0 375.83017
v 176.75 71.0 374.03018
v 176.75 70.9 373.93018
v 176.75 66.1 373.93018
v 176.75 66.1 448.2002
v 316.25 66.1 448.2002
v 316.25 70.9 448.2002
v 176.75 70.9 448.2002
v 176.75 66.0 446.30017
v 316.25 66.0 446.30017
v 316.25 66.0 448.1002
v 176.75 66.0 448.1002
v 316.25 66.1 446.2002
v 316.25 70.9 446.2002
v 316.25 71.0 446.30017
v 316.25 71.0 448.1002
v 176.75 71.0 448.1002
v 176.75 71.0 446.30017
v 176.75 70.9 446.2002
v 176.75 66.1 446.2002
v 173.9 66.1 443.30017
v 173.9 66.1 378.81018
v 173.9 70.9 378.81018
v 173.9 70.9 443.30017
v 172.0 66.0 443.30017
v 172.0 66.0 378.81018
v 173.8 66.0 378.81018
v 173.8 66.0 443.30017
v 171.9 66.1 378.81018
v 171.9 70.9 378.81018
v 172.0 71.0 378.81018
v 173.8 71.0 378.81018
v 173.8 71.0 443.30017
v 172.0 71.0 443.30017
v 171.9 70.9 443.30017
v 171.9 66.1 443.30017
v 321.1 66.1 443.30017
v 321.1 66.1 378.81018
v 321.1 70.9 378.81018
v 321.1 70.9 443.30017
v 319.2 66.0 443.30017
v 319.2 66.0 378.81018
v 321.0 66.0 378.81018
v 321.0 66.0 443.30017
v 319.1 66.1 378.81018
v 319.1 70.9 378.81018
v 319.2 71.0 378.81018
v 321.0 71.0 378.81018
v 321.0 71.0 443.30017
v 319.2 71.0 443.30017
v 319.1 70.9 443.30017
v 319.1 66.1 443.30017
vn 0.0 0.0 1.0
vn 0.0 -0.99999994 0.0
vn 1.0 0.0 0.0
vn 0.0 0.99999994 0.0
vn -0.0 -0.0 -1.0
vn 0.0 0.70710677 0.70710677
vn 0.0 0.70710677 -0.70710677
vn 0.0 -0.7070962 -0.7071173
vn 0.0 -0.7070962 0.7071173
vn -1.0 -0.0 -0.0
vn 0.0 -1.0 0.0
vn 0.0 0.7071114 0.7071021
vn 0.0 0.7071114 -0.7071021
vn 0.0 -0.70710087 -0.7071127
vn 0.0 -0.70710087 0.7071127
vn 0.70710236 0.7071112 0.0
vn -0.70710284 0.7071107 0.0
vn -0.7071134 -0.70710015 -0.0
vn 0.7071129 -0.70710063 0.0
vn 0.7070857 0.70712787 0.0
vn -0.70712787 0.7070857 0.0
vn -0.7071384 -0.7070752 -0.0
vn 0.7070963 -0.70711726 0.0
f 5//3 6//3 7//3
f 5//3 7//3 8//3
f 9//4 10//4 11//4
f 9//4 11//4 12//4
f 6//5 11//5 10//5
f 6//5 10//5 13//5
f 6//5 13//5 14//5
f 6//5 14//5 15//5
f 6//5 15//5 16//5
f 6//5 16//5 7//5
f 17//6 16//6 15//6
f 17//6 15//6 18//6
f 19//7 14//7 13//7
f 19//7 13//7 20//7
f 8//8 7//8 16//8
f 8//8 16//8 17//8
f 14//9 19//9 18//9
f 14//9 18//9 15//9
f 10//10 9//10 20//10
f 10//10 20//10 13//10
f 6//11 5//11 12//11
f 6//11 12//11 11//11
f 8//12 17//12 18//12
f 8//12 18//12 19//12
f 8//12 19//12 20//12
f 8//12 20//12 9//12
f 8//12 9//12 12//12
f 8//12 12//12 5//12
f 21//3 22//3 23//3
f 21//3 23//3 24//3
f 25//13 26//13 27//13
f 25//13 27//13 28//13
f 22//5 27//5 26//5
f 22//5 26//5 29//5
f 22//5 29//5 30//5
f 22//5 30//5 31//5
f 22//5 31//5 32//5
f 22//5 32//5 23//5
f 33//1 32//1 31//1
f 33//1 31//1 34//1
f 35//7 30//7 29//7
f 35//7 29//7 36//7
f 24//14 23//14 32//14
f 24//14 32//14 33//14
f 30//15 35//15 34//15
f 30//15 34//15 31//15
f 26//16 25//16 36//16
f 26//16 36//16 29//16
f 22//17 21//17 28//17
f 22//17 28//17 27//17
f 24//12 33//12 34//12
f 24//12 34//12 35//12
f 24//12 35//12 36//12
f 24//12 36//12 25//12
f 24//12 25//12 28//12
f 24//12 28//12 21//12
f 37//5 38//5 39//5
f 37//5 39//5 40//5
f 41//13 42//13 43//13
f 41//13 43//13 44//13
f 38//7 43//7 42//7
f 38//7 42//7 45//7
f 38//7 45//7 46//7
f 38//7 46//7 47//7
f 38//7 47//7 48//7
f 38//7 48//7 39//7
f 49//1 48//1 47//1
f 49//1 47//1 50//1
f 51//12 46//12 45//12
f 51//12 45//12 52//12
f 40//18 39//18 48//18
f 40//18 48//18 49//18
f 46//19 51//19 50//19
f 46//19 50//19 47//19
f 42//20 41//20 52//20
f 42//20 52//20 45//20
f 38//21 37//21 44//21
f 38//21 44//21 43//21
f 40//3 49//3 50//3
f 40//3 50//3 51//3
f 40//3 51//3 52//3
f 40//3 52//3 41//3
f 40//3 41//3 44//3
f 40//3 44//3 37//3
f 53//5 54//5 55//5
f 53//5 55//5 56//5
f 57//13 58//13 59//13
f 57//13 59//13 60//13
f 54//7 59//7 58//7
f 54//7 58//7 61//7
f 54//7 61//7 62//7
f 54//7 62//7 63//7
f 54//7 63//7 64//7
f 54//7 64//7 55//7
f 65//1 64//1 63//1
f 65//1 63//1 66//1
f 67//12 62//12 61//12
f 67//12 61//12 68//12
f 56//22 55//22 64//22
f 56//22 64//22 65//22
f 62//23 67//23 66//23
f 62//23 66//23 63//23
f 58//24 57//24 68//24
f 58//24 68//24 61//24
f 54//25 53//25 60//25
f 54//25 60//25 59//25
f 56//3 65//3 66//3
f 56//3 66//3 67//3
f 56//3 67//3 68//3
f 56//3 68//3 57//3
f 56//3 57//3 60//3
f 56//3 60//3 53//3
g Feet_3
usemtl black
v 321.15 -0 378.81018
v 321.15 71.0 378.81018
v 316.35 71.0 378.81018
v 316.35 -0 378.81018
v 321.25 -0 373.9102
v 321.25 71.0 373.9102
v 321.25 71.0 378.71017
v 321.25 -0 378.71017
v 321.15 71.0 373.81018
v 316.35 71.0 373.81018
v 316.25 71.0 373.9102
v 316.25 71.0 378.71017
v 316.25 -0 378.71017
v 316.25 -0 373.9102
v 316.35 -0 373.81018
v 321.15 -0 373.81018
v 321.15 -0 448.31018
v 321.15 71.0 448.31018
v 316.35 71.0 448.31018
v 316.35 -0 448.31018
v 321.25 -0 443.4102
v 321.25 71.0 443.4102
v 321.25 71.0 448.21017
v 321.25 -0 448.21017
v 321.15 71.0 443.31018
v 316.35 71.0 443.31018
v 316.25 71.0 443.4102
v 316.25 71.0 448.21017
v 316.25 -0 448.21017
v 316.25 -0 443.4102
v 316.35 -0 443.31018
v 321.15 -0 443.31018
v 176.65 -0 378.81018
v 176.65 71.0 378.81018
v 171.85 71.0 378.81018
v 171.85 -0 378.81018
v 176.75 -0 373.9102
v 176.75 71.0 373.9102
v 176.75 71.0 378.71017
v 176.75 -0 378.71017
v 176.65 71.0 373.81018
v 171.85 71.0 373.81018
v 171.75 71.0 373.9102
v 171.75 71.0 378.71017
v 171.75 -0 378.71017
v 171.75 -0 373.9102
v 171.85 -0 373.81018
v 176.65 -0 373.81018
v 176.65 -0 448.31018
v 176.65 71.0 448.31018
v 171.85 71.0 448.31018
v 171.85 -0 448.31018
v 176.75 -0 443.4102
v 176.75 71.0 443.4102
v 176.75 71.0 448.21017
v 176.75 -0 448.21017
v 176.65 71.0 443.31018
v 171.85 71.0 443.31018
v 171.75 71.0 443.4102
v 171.75 71.0 448.21017
v 171.75 -0 448.21017
v 171.75 -0 443.4102
v 171.85 -0 443.31018
v 176.65 -0 443.31018
vn -0.7070857 0.0 0.7071278
vn -0.70710677 0.0 -0.70710677
vn 0.70710677 0.0 -0.70710677
vn 0.7070857 0.0 0.7071278
vn -0.7070904 0.0 0.7071232
vn -0.7070904 0.0 -0.7071232
vn 0.7070904 0.0 -0.7071232
vn 0.7070904 0.0 0.7071232
vn -0.7071022 0.0 0.70711136
vn -0.7071232 0.0 -0.70709026
vn 0.7071232 0.0 -0.70709026
vn 0.7071022 0.0 0.70711136
vn -0.70710677 0.0 0.70710677
vn 0.70710677 0.0 0.70710677
f 69//3 70//3 71//3
f 69//3 71//3 72//3
f 73//5 74//5 75//5
f 73//5 75//5 76//5
f 70//1 75//1 74//1
f 70//1 74//1 77//1
f 70//1 77//1 78//1
f 70//1 78//1 79//1
f 70//1 79//1 80//1
f 70//1 80//1 71//1
f 81//12 80//12 79//12
f 81//12 79//12 82//12
f 83//7 78//7 77//7
f 83//7 77//7 84//7
f 72//26 71//26 80//26
f 72//26 80//26 81//26
f 78//27 83//27 82//27
f 78//27 82//27 79//27
f 74//28 73//28 84//28
f 74//28 84//28 77//28
f 70//29 69//29 76//29
f 70//29 76//29 75//29
f 72//13 81//13 82//13
f 72//13 82//13 83//13
f 72//13 83//13 84//13
f 72//13 84//13 73//13
f 72//13 73//13 76//13
f 72//13 76//13 69//13
f 85//3 86//3 87//3
f 85//3 87//3 88//3
f 89//5 90//5 91//5
f 89//5 91//5 92//5
f 86//1 91//1 90//1
f 86//1 90//1 93//1
f 86//1 93//1 94//1
f 86//1 94//1 95//1
f 86//1 95//1 96//1
f 86//6 96//6 87//6
f 97//12 96//12 95//12
f 97//12 95//12 98//12
f 99//7 94//7 93//7
f 99//7 93//7 100//7
f 88//30 87//30 96//30
f 88//30 96//30 97//30
f 94//31 99//31 98//31
f 94//31 98//31 95//31
f 90//32 89//32 100//32
f 90//32 100//32 93//32
f 86//33 85//33 92//33
f 86//33 92//33 91//33
f 88//13 97//13 98//13
f 88//13 98//13 99//13
f 88//13 99//13 100//13
f 88//13 100//13 89//13
f 88//13 89//13 92//13
f 88//4 92//4 85//4
f 101//3 102//3 103//3
f 101//3 103//3 104//3
f 105//5 106//5 107//5
f 105//5 107//5 108//5
f 102//1 107//1 106//1
f 102//1 106//1 109//1
f 102//1 109//1 110//1
f 102//1 110//1 111//1
f 102//1 111//1 112//1
f 102//1 112//1 103//1
f 113//12 112//12 111//12
f 113//12 111//12 114//12
f 115//7 110//7 109//7
f 115//7 109//7 116//7
f 104//34 103//34 112//34
f 104//34 112//34 113//34
f 110//35 115//35 114//35
f 110//35 114//35 111//35
f 106//36 105//36 116//36
f 106//36 116//36 109//36
f 102//37 101//37 108//37
f 102//37 108//37 107//37
f 104//13 113//13 114//13
f 104//13 114//13 115//13
f 104//13 115//13 116//13
f 104//13 116//13 105//13
f 104//13 105//13 108//13
f 104//13 108//13 101//13
f 117//3 118//3 119//3
f 117//3 119//3 120//3
f 121//5 122//5 123//5
f 121//5 123//5 124//5
f 118//1 123//1 122//1
f 118//1 122//1 125//1
f 118//1 125//1 126//1
f 118//1 126//1 127//1
f 118//1 127//1 128//1
f 118//1 128//1 119//1
f 129//12 128//12 127//12
f 129//12 127//12 130//12
f 131//7 126//7 125//7
f 131//7 125//7 132//7
f 120//38 119//38 128//38
f 120//38 128//38 129//38
f 126//27 131//27 130//27
f 126//27 130//27 127//27
f 122//28 121//28 132//28
f 122//28 132//28 125//28
f 118//39 117//39 124//39
f 118//39 124//39 123//39
f 120//13 129//13 130//13
f 120//13 130//13 131//13
f 120//13 131//13 132//13
f 120//13 132//13 121//13
f 120//13 121//13 124//13
f 120//13 124//13 117//13
g Table_4
usemtl lighttannew
v 321.25 71.25 448.56018
v 321.25 73.75 448.56018
v 171.75 73.75 448.56018
v 171.75 71.25 448.56018
v 321.5 71.25 373.81018
v 321.5 73.75 373.81018
v 321.5 73.75 448.31018
v 321.5 71.25 448.31018
v 321.25 74.0 373.81018
v 171.75 74.0 373.81018
v 171.75 74.0 448.31018
v 321.25 74.0 448.31018
v 171.5 71.25 448.31018
v 171.5 73.75 448.31018
v 171.5 73.75 373.81018
v 171.5 71.25 373.81018
v 171.75 71.25 373.56018
v 171.75 73.75 373.56018
v 321.25 73.75 373.56018
v 321.25 71.25 373.56018
v 171.75 71.0 448.31018
v 171.75 71.0 373.81018
v 321.25 71.0 448.31018
v 321.25 71.0 373.81018
vn -0.57735014 -0.57735056 0.5773501
vn -0.57735014 0.57735056 0.5773501
vn -0.57735 -0.57735044 -0.57735044
vn -0.57735 0.57735044 -0.57735044
vn 0.57735956 -0.57734585 0.5773453
vn 0.57735956 0.57734585 0.5773453
vn 0.57735944 -0.57734567 -0.57734567
vn 0.57735944 0.57734567 -0.57734567
vn -0.70710653 -0.70710707 -0.0
vn -0.70710653 0.70710707 0.0
vn -0.70710653 0.0 -0.70710707
vn 0.0 -0.70710677 -0.70710677
vn 0.70711523 0.0 -0.70709836
vn 0.70711523 -0.70709836 0.0
vn 0.70711523 0.70709836 0.0
vn 0.70711553 0.0 0.70709807
vn 0.0 -0.70710707 0.70710653
vn 0.0 0.70710707 0.70710653
f 133//3 134//3 135//3
f 133//3 135//3 136//3
f 137//5 138//5 139//5
f 137//5 139//5 140//5
f 141//1 142//1 143//1
f 141//1 143//1 144//1
f 145//12 146//12 147//12
f 145//12 147//12 148//12
f 149//7 150//7 151//7
f 149//7 151//7 152//7
f 153//40 136//40 145//40
f 135//41 143//41 146//41
f 154//42 148//42 149//42
f 142//43 150//43 147//43
f 155//44 140//44 133//44
f 144//45 134//45 139//45
f 156//46 152//46 137//46
f 141//47 138//47 151//47
f 154//48 153//48 145//48
f 154//48 145//48 148//48
f 136//38 135//38 146//38
f 136//38 146//38 145//38
f 143//49 142//49 147//49
f 143//49 147//49 146//49
f 150//50 149//50 148//50
f 150//50 148//50 147//50
f 156//51 154//51 149//51
f 156//51 149//51 152//51
f 142//9 141//9 151//9
f 142//9 151//9 150//9
f 138//52 137//52 152//52
f 138//52 152//52 151//52
f 155//53 156//53 137//53
f 155//53 137//53 140//53
f 141//54 144//54 139//54
f 141//54 139//54 138//54
f 134//55 133//55 140//55
f 134//55 140//55 139//55
f 153//56 155//56 133//56
f 153//56 133//56 136//56
f 144//57 143//57 135//57
f 144//57 135//57 134//57
f 154//13 156//13 155//13
f 154//13 155//13 153//13
