999
dxfrw 0.6.3
  0
SECTION
  2
HEADER
  9
$ACADVER
  1
AC1021
  9
$DWGCODEPAGE
  3
ANSI_1252
  9
$INSBASE
 10
0
 20
0
 30
0
  9
$EXTMIN
 10
10000000000
 20
10000000000
 30
0
  9
$EXTMAX
 10
-10000000000
 20
-10000000000
 30
0
  9
$LIMMIN
 10
0
 20
0
  9
$LIMMAX
 10
420
 20
297
  9
$ORTHOMODE
 70
    1
  9
$REGENMODE
 70
    1
  9
$FILLMODE
 70
    1
  9
$QTEXTMODE
 70
    0
  9
$MIRRTEXT
 70
    0
  9
$LTSCALE
 40
1
  9
$ATTMODE
 70
    1
  9
$TEXTSIZE
 40
2.5
  9
$TRACEWID
 40
1
  9
$TEXTSTYLE
  7
Standard
  9
$CLAYER
  8
caminho
  9
$CELTYPE
  6
ByLayer
  9
$CECOLOR
 62
  256
  9
$CELTSCALE
 40
1
  9
$DISPSILH
 70
    0
  9
$DIMSCALE
 40
1
  9
$DIMASZ
 40
2.5
  9
$DIMEXO
 40
0.625
  9
$DIMDLI
 40
3.75
  9
$DIMRND
 40
0
  9
$DIMDLE
 40
0
  9
$DIMEXE
 40
1.25
  9
$DIMTP
 40
0
  9
$DIMTM
 40
0
  9
$DIMTXT
 40
2.5
  9
$DIMCEN
 40
2.5
  9
$DIMTSZ
 40
0
  9
$DIMTOL
 70
    0
  9
$DIMLIM
 70
    0
  9
$DIMTIH
 70
    0
  9
$DIMTOH
 70
    0
  9
$DIMSE1
 70
    0
  9
$DIMSE2
 70
    0
  9
$DIMTAD
 70
    1
  9
$DIMZIN
 70
    8
  9
$DIMBLK
  1

  9
$DIMASO
 70
    1
  9
$DIMSHO
 70
    1
  9
$DIMPOST
  1

  9
$DIMAPOST
  1

  9
$DIMALT
 70
    0
  9
$DIMALTD
 70
    3
  9
$DIMALTF
 40
0.03937007874016
  9
$DIMLFAC
 40
1
  9
$DIMTOFL
 70
    1
  9
$DIMTVP
 40
0
  9
$DIMTIX
 70
    0
  9
$DIMSOXD
 70
    0
  9
$DIMSAH
 70
    0
  9
$DIMBLK1
  1

  9
$DIMBLK2
  1

  9
$DIMSTYLE
  2
ISO-25
  9
$DIMCLRD
 70
    0
  9
$DIMCLRE
 70
    0
  9
$DIMCLRT
 70
    0
  9
$DIMTFAC
 40
1
  9
$DIMGAP
 40
0.625
  9
$DIMJUST
 70
    0
  9
$DIMSD1
 70
    0
  9
$DIMSD2
 70
    0
  9
$DIMTOLJ
 70
    0
  9
$DIMTZIN
 70
    8
  9
$DIMALTZ
 70
    0
  9
$DIMALTTZ
 70
    0
  9
$DIMUPT
 70
    0
  9
$DIMDEC
 70
    2
  9
$DIMTDEC
 70
    2
  9
$DIMALTU
 70
    2
  9
$DIMALTTD
 70
    3
  9
$DIMTXSTY
  7
standard
  9
$DIMAUNIT
 70
    0
  9
$DIMADEC
 70
    0
  9
$DIMALTRND
 40
0
  9
$DIMAZIN
 70
    0
  9
$DIMDSEP
 70
   44
  9
$DIMATFIT
 70
    3
  9
$DIMFRAC
 70
    0
  9
$DIMLDRBLK
  1

  9
$DIMLUNIT
 70
    2
  9
$DIMLWD
 70
   -2
  9
$DIMLWE
 70
   -2
  9
$DIMTMOVE
 70
    0
  9
$DIMFXL
 40
1
  9
$DIMFXLON
 70
    0
  9
$DIMJOGANG
 40
0.7853981633974483
  9
$DIMTFILL
 70
    0
  9
$DIMTFILLCLR
 70
    0
  9
$DIMARCSYM
 70
    0
  9
$DIMLTYPE
  6

  9
$DIMLTEX1
  6

  9
$DIMLTEX2
  6

  9
$LUNITS
 70
    2
  9
$LUPREC
 70
    4
  9
$SKETCHINC
 40
1
  9
$FILLETRAD
 40
0
  9
$AUNITS
 70
    0
  9
$AUPREC
 70
    0
  9
$MENU
  1
.
  9
$ELEVATION
 40
0
  9
$PELEVATION
 40
0
  9
$THICKNESS
 40
0
  9
$LIMCHECK
 70
    0
  9
$CHAMFERA
 40
0
  9
$CHAMFERB
 40
0
  9
$CHAMFERC
 40
0
  9
$CHAMFERD
 40
0
  9
$SKPOLY
 70
    0
  9
$USRTIMER
 70
    1
  9
$ANGBASE
 50
0
  9
$ANGDIR
 70
    0
  9
$PDMODE
 70
    0
  9
$PDSIZE
 40
0
  9
$PLINEWID
 40
0
  9
$SPLFRAME
 70
    0
  9
$SPLINETYPE
 70
    6
  9
$SPLINESEGS
 70
    8
  9
$HANDSEED
  5
20000
  9
$SURFTAB1
 70
    6
  9
$SURFTAB2
 70
    6
  9
$SURFTYPE
 70
    6
  9
$SURFU
 70
    6
  9
$SURFV
 70
    6
  9
$UCSBASE
  2

  9
$UCSNAME
  2

  9
$UCSORG
 10
0
 20
0
 30
0
  9
$UCSXDIR
 10
1
 20
0
 30
0
  9
$UCSYDIR
 10
0
 20
1
 30
0
  9
$UCSORTHOREF
  2

  9
$UCSORTHOVIEW
 70
    0
  9
$UCSORGTOP
 10
0
 20
0
 30
0
  9
$UCSORGBOTTOM
 10
0
 20
0
 30
0
  9
$UCSORGLEFT
 10
0
 20
0
 30
0
  9
$UCSORGRIGHT
 10
0
 20
0
 30
0
  9
$UCSORGFRONT
 10
0
 20
0
 30
0
  9
$UCSORGBACK
 10
0
 20
0
 30
0
  9
$PUCSBASE
  2

  9
$PUCSNAME
  2

  9
$PUCSORG
 10
0
 20
0
 30
0
  9
$PUCSXDIR
 10
1
 20
0
 30
0
  9
$PUCSYDIR
 10
0
 20
1
 30
0
  9
$PUCSORTHOREF
  2

  9
$PUCSORTHOVIEW
 70
    0
  9
$PUCSORGTOP
 10
0
 20
0
 30
0
  9
$PUCSORGBOTTOM
 10
0
 20
0
 30
0
  9
$PUCSORGLEFT
 10
0
 20
0
 30
0
  9
$PUCSORGRIGHT
 10
0
 20
0
 30
0
  9
$PUCSORGFRONT
 10
0
 20
0
 30
0
  9
$PUCSORGBACK
 10
0
 20
0
 30
0
  9
$USERI1
 70
    0
  9
$USERI2
 70
    0
  9
$USERI3
 70
    0
  9
$USERI4
 70
    0
  9
$USERI5
 70
    0
  9
$USERR1
 40
0
  9
$USERR2
 40
0
  9
$USERR3
 40
0
  9
$USERR4
 40
0
  9
$USERR5
 40
0
  9
$WORLDVIEW
 70
    1
  9
$SHADEDGE
 70
    3
  9
$SHADEDIF
 70
   70
  9
$TILEMODE
 70
    1
  9
$MAXACTVP
 70
   64
  9
$PINSBASE
 10
0
 20
0
 30
0
  9
$PLIMCHECK
 70
    0
  9
$PEXTMIN
 10
0
 20
0
 30
0
  9
$PEXTMAX
 10
0
 20
0
 30
0
  9
$GRIDMODE
 70
    0
  9
$SNAPSTYLE
 70
    0
  9
$GRIDUNIT
 10
0
 20
0
  9
$PLIMMIN
 10
0
 20
0
  9
$PLIMMAX
 10
0.0012
 20
0.0009
  9
$UNITMODE
 70
    0
  9
$VISRETAIN
 70
    1
  9
$PLINEGEN
 70
    0
  9
$PSLTSCALE
 70
    1
  9
$TREEDEPTH
 70
 3020
  9
$CMLSTYLE
  2
Standard
  9
$CMLJUST
 70
    0
  9
$CMLSCALE
 40
20
  9
$PROXYGRAPHICS
 70
    1
  9
$MEASUREMENT
 70
    1
  9
$CELWEIGHT
370
   -1
  9
$ENDCAPS
280
    0
  9
$JOINSTYLE
280
    0
  9
$LWDISPLAY
290
    0
  9
$INSUNITS
 70
    6
  9
$HYPERLINKBASE
  1

  9
$STYLESHEET
  1

  9
$XEDIT
290
    1
  9
$CEPSNTYPE
380
    0
  9
$PSTYLEMODE
290
    1
  9
$EXTNAMES
290
    1
  9
$PSVPSCALE
 40
0
  9
$OLESTARTUP
290
    0
  9
$SORTENTS
280
  127
  9
$INDEXCTL
280
    0
  9
$HIDETEXT
280
    1
  9
$XCLIPFRAME
290
    2
  9
$HALOGAP
280
    0
  9
$OBSCOLOR
 70
  257
  9
$OBSLTYPE
280
    0
  9
$INTERSECTIONDISPLAY
280
    0
  9
$INTERSECTIONCOLOR
 70
  257
  9
$DIMASSOC
280
    2
  9
$PROJECTNAME
  1

  9
$CAMERADISPLAY
290
    0
  9
$LENSLENGTH
 40
50
  9
$CAMERAHEIGHT
 40
0
  9
$STEPSPERSEC
 40
2
  9
$STEPSIZE
 40
6
  9
$3DDWFPREC
 40
2
  9
$PSOLWIDTH
 40
5
  9
$PSOLHEIGHT
 40
80
  9
$LOFTANG1
 40
1.570796326794896
  9
$LOFTANG2
 40
1.570796326794896
  9
$LOFTMAG1
 40
0
  9
$LOFTMAG2
 40
0
  9
$LOFTPARAM
 70
    7
  9
$LOFTNORMALS
280
    1
  9
$LATITUDE
 40
37.795
  9
$LONGITUDE
 40
-122.394
  9
$NORTHDIRECTION
 40
0
  9
$TIMEZONE
 70
-8000
  9
$LIGHTGLYPHDISPLAY
280
    1
  9
$TILEMODELIGHTSYNCH
280
    1
  9
$SOLIDHIST
280
    0
  9
$SHOWHIST
280
    1
  9
$DWFFRAME
280
    2
  9
$DGNFRAME
280
    0
  9
$REALWORLDSCALE
290
    1
  9
$INTERFERECOLOR
 62
    1
  9
$CSHADOW
280
    0
  9
$SHADOWPLANELOCATION
 40
0
  0
ENDSEC
  0
SECTION
  2
CLASSES
  0
ENDSEC
  0
SECTION
  2
TABLES
  0
TABLE
  2
VPORT
  5
8
330
0
100
AcDbSymbolTable
 70
    1
  0
VPORT
  5
31
330
2
100
AcDbSymbolTableRecord
100
AcDbViewportTableRecord
  2
*ACTIVE
 70
    0
 10
0
 20
0
 11
1
 21
1
 12
12.57922155614903
 22
9.989381824000699
 13
0
 23
0
 14
10
 24
10
 15
10
 25
10
 16
0
 26
0
 36
1
 17
0
 27
0
 37
0
 40
20.64472243626811
 41
1.794504181600956
 42
50
 43
0
 44
0
 50
0
 51
0
 71
    0
 72
  100
 73
    1
 74
    3
 75
    0
 76
    0
 77
    0
 78
    0
281
    0
 65
    1
110
0
120
0
130
0
111
1
121
0
131
0
112
0
122
1
132
0
 79
    0
146
0
348
10020
 60
    7
 61
    5
292
1
282
    1
141
0
142
0
 63
  250
421
3358443
  0
ENDTAB
  0
TABLE
  2
LTYPE
  5
5
330
0
100
AcDbSymbolTable
 70
    4
  0
LTYPE
  5
14
330
5
100
AcDbSymbolTableRecord
100
AcDbLinetypeTableRecord
  2
ByBlock
 70
    0
  3

 72
   65
 73
    0
 40
0
  0
LTYPE
  5
15
330
5
100
AcDbSymbolTableRecord
100
AcDbLinetypeTableRecord
  2
ByLayer
 70
    0
  3

 72
   65
 73
    0
 40
0
  0
LTYPE
  5
16
330
5
100
AcDbSymbolTableRecord
100
AcDbLinetypeTableRecord
  2
Continuous
 70
    0
  3
Solid line
 72
   65
 73
    0
 40
0
  0
LTYPE
  5
32
330
5
100
AcDbSymbolTableRecord
100
AcDbLinetypeTableRecord
  2
DOT
 70
    0
  3
Dot . . . . . . . . . . . . . . . . . . . . . .
 72
   65
 73
    2
 40
6.35
 49
0
 74
    0
 49
-6.35
 74
    0
  0
LTYPE
  5
33
330
5
100
AcDbSymbolTableRecord
100
AcDbLinetypeTableRecord
  2
DOTTINY
 70
    0
  3
Dot (.15x) .....................................
 72
   65
 73
    2
 40
0.9525
 49
0
 74
    0
 49
-0.9525
 74
    0
  0
LTYPE
  5
34
330
5
100
AcDbSymbolTableRecord
100
AcDbLinetypeTableRecord
  2
DOT2
 70
    0
  3
Dot (.5x) .....................................
 72
   65
 73
    2
 40
3.175
 49
0
 74
    0
 49
-3.175
 74
    0
  0
LTYPE
  5
35
330
5
100
AcDbSymbolTableRecord
100
AcDbLinetypeTableRecord
  2
DOTX2
 70
    0
  3
Dot (2x) .  .  .  .  .  .  .  .  .  .  .  .  .
 72
   65
 73
    2
 40
12.7
 49
0
 74
    0
 49
-12.7
 74
    0
  0
LTYPE
  5
36
330
5
100
AcDbSymbolTableRecord
100
AcDbLinetypeTableRecord
  2
DASHED
 70
    0
  3
Dashed _ _ _ _ _ _ _ _ _ _ _ _ _ _ _ _ _
 72
   65
 73
    2
 40
19.05
 49
12.7
 74
    0
 49
-6.35
 74
    0
  0
LTYPE
  5
37
330
5
100
AcDbSymbolTableRecord
100
AcDbLinetypeTableRecord
  2
DASHEDTINY
 70
    0
  3
Dashed (.15x) _ _ _ _ _ _ _ _ _ _ _ _ _ _ _ _ _
 72
   65
 73
    2
 40
2.8575
 49
1.905
 74
    0
 49
-0.9525
 74
    0
  0
LTYPE
  5
38
330
5
100
AcDbSymbolTableRecord
100
AcDbLinetypeTableRecord
  2
DASHED2
 70
    0
  3
Dashed (.5x) _ _ _ _ _ _ _ _ _ _ _ _ _ _ _ _ _
 72
   65
 73
    2
 40
9.524999999999999
 49
6.35
 74
    0
 49
-3.175
 74
    0
  0
LTYPE
  5
39
330
5
100
AcDbSymbolTableRecord
100
AcDbLinetypeTableRecord
  2
DASHEDX2
 70
    0
  3
Dashed (2x) ____  ____  ____  ____  ____  ___
 72
   65
 73
    2
 40
38.09999999999999
 49
25.4
 74
    0
 49
-12.7
 74
    0
  0
LTYPE
  5
3A
330
5
100
AcDbSymbolTableRecord
100
AcDbLinetypeTableRecord
  2
DASHDOT
 70
    0
  3
Dash dot __ . __ . __ . __ . __ . __ . __ . __
 72
   65
 73
    4
 40
25.4
 49
12.7
 74
    0
 49
-6.35
 74
    0
 49
0
 74
    0
 49
-6.35
 74
    0
  0
LTYPE
  5
3B
330
5
100
AcDbSymbolTableRecord
100
AcDbLinetypeTableRecord
  2
DASHDOTTINY
 70
    0
  3
Dash dot (.15x) _._._._._._._._._._._._._._._.
 72
   65
 73
    4
 40
3.81
 49
1.905
 74
    0
 49
-0.9525
 74
    0
 49
0
 74
    0
 49
-0.9525
 74
    0
  0
LTYPE
  5
3C
330
5
100
AcDbSymbolTableRecord
100
AcDbLinetypeTableRecord
  2
DASHDOT2
 70
    0
  3
Dash dot (.5x) _._._._._._._._._._._._._._._.
 72
   65
 73
    4
 40
12.7
 49
6.35
 74
    0
 49
-3.175
 74
    0
 49
0
 74
    0
 49
-3.175
 74
    0
  0
LTYPE
  5
3D
330
5
100
AcDbSymbolTableRecord
100
AcDbLinetypeTableRecord
  2
DASHDOTX2
 70
    0
  3
Dash dot (2x) ____  .  ____  .  ____  .  ___
 72
   65
 73
    4
 40
50.8
 49
25.4
 74
    0
 49
-12.7
 74
    0
 49
0
 74
    0
 49
-12.7
 74
    0
  0
LTYPE
  5
3E
330
5
100
AcDbSymbolTableRecord
100
AcDbLinetypeTableRecord
  2
DIVIDE
 70
    0
  3
Divide ____ . . ____ . . ____ . . ____ . . ____
 72
   65
 73
    6
 40
31.75
 49
12.7
 74
    0
 49
-6.35
 74
    0
 49
0
 74
    0
 49
-6.35
 74
    0
 49
0
 74
    0
 49
-6.35
 74
    0
  0
LTYPE
  5
3F
330
5
100
AcDbSymbolTableRecord
100
AcDbLinetypeTableRecord
  2
DIVIDETINY
 70
    0
  3
Divide (.15x) __..__..__..__..__..__..__..__.._
 72
   65
 73
    6
 40
4.7625
 49
1.905
 74
    0
 49
-0.9525
 74
    0
 49
0
 74
    0
 49
-0.9525
 74
    0
 49
0
 74
    0
 49
-0.9525
 74
    0
  0
LTYPE
  5
40
330
5
100
AcDbSymbolTableRecord
100
AcDbLinetypeTableRecord
  2
DIVIDE2
 70
    0
  3
Divide (.5x) __..__..__..__..__..__..__..__.._
 72
   65
 73
    6
 40
15.875
 49
6.35
 74
    0
 49
-3.175
 74
    0
 49
0
 74
    0
 49
-3.175
 74
    0
 49
0
 74
    0
 49
-3.175
 74
    0
  0
LTYPE
  5
41
330
5
100
AcDbSymbolTableRecord
100
AcDbLinetypeTableRecord
  2
DIVIDEX2
 70
    0
  3
Divide (2x) ________  .  .  ________  .  .  _
 72
   65
 73
    6
 40
63.5
 49
25.4
 74
    0
 49
-12.7
 74
    0
 49
0
 74
    0
 49
-12.7
 74
    0
 49
0
 74
    0
 49
-12.7
 74
    0
  0
LTYPE
  5
42
330
5
100
AcDbSymbolTableRecord
100
AcDbLinetypeTableRecord
  2
BORDER
 70
    0
  3
Border __ __ . __ __ . __ __ . __ __ . __ __ .
 72
   65
 73
    6
 40
44.45
 49
12.7
 74
    0
 49
-6.35
 74
    0
 49
12.7
 74
    0
 49
-6.35
 74
    0
 49
0
 74
    0
 49
-6.35
 74
    0
  0
LTYPE
  5
43
330
5
100
AcDbSymbolTableRecord
100
AcDbLinetypeTableRecord
  2
BORDERTINY
 70
    0
  3
Border (.15x) __.__.__.__.__.__.__.__.__.__.__.
 72
   65
 73
    6
 40
6.6675
 49
1.905
 74
    0
 49
-0.9525
 74
    0
 49
1.905
 74
    0
 49
-0.9525
 74
    0
 49
0
 74
    0
 49
-0.9525
 74
    0
  0
LTYPE
  5
44
330
5
100
AcDbSymbolTableRecord
100
AcDbLinetypeTableRecord
  2
BORDER2
 70
    0
  3
Border (.5x) __.__.__.__.__.__.__.__.__.__.__.
 72
   65
 73
    6
 40
22.225
 49
6.35
 74
    0
 49
-3.175
 74
    0
 49
6.35
 74
    0
 49
-3.175
 74
    0
 49
0
 74
    0
 49
-3.175
 74
    0
  0
LTYPE
  5
45
330
5
100
AcDbSymbolTableRecord
100
AcDbLinetypeTableRecord
  2
BORDERX2
 70
    0
  3
Border (2x) ____  ____  .  ____  ____  .  ___
 72
   65
 73
    6
 40
88.89999999999999
 49
25.4
 74
    0
 49
-12.7
 74
    0
 49
25.4
 74
    0
 49
-12.7
 74
    0
 49
0
 74
    0
 49
-12.7
 74
    0
  0
LTYPE
  5
46
330
5
100
AcDbSymbolTableRecord
100
AcDbLinetypeTableRecord
  2
CENTER
 70
    0
  3
Center ____ _ ____ _ ____ _ ____ _ ____ _ ____
 72
   65
 73
    4
 40
50.8
 49
31.75
 74
    0
 49
-6.35
 74
    0
 49
6.35
 74
    0
 49
-6.35
 74
    0
  0
LTYPE
  5
47
330
5
100
AcDbSymbolTableRecord
100
AcDbLinetypeTableRecord
  2
CENTERTINY
 70
    0
  3
Center (.15x) ___ _ ___ _ ___ _ ___ _ ___ _ ___
 72
   65
 73
    4
 40
7.62
 49
4.7625
 74
    0
 49
-0.9525
 74
    0
 49
0.9525
 74
    0
 49
-0.9525
 74
    0
  0
LTYPE
  5
48
330
5
100
AcDbSymbolTableRecord
100
AcDbLinetypeTableRecord
  2
CENTER2
 70
    0
  3
Center (.5x) ___ _ ___ _ ___ _ ___ _ ___ _ ___
 72
   65
 73
    4
 40
28.575
 49
19.05
 74
    0
 49
-3.175
 74
    0
 49
3.175
 74
    0
 49
-3.175
 74
    0
  0
LTYPE
  5
49
330
5
100
AcDbSymbolTableRecord
100
AcDbLinetypeTableRecord
  2
CENTERX2
 70
    0
  3
Center (2x) ________  __  ________  __  _____
 72
   65
 73
    4
 40
101.6
 49
63.5
 74
    0
 49
-12.7
 74
    0
 49
12.7
 74
    0
 49
-12.7
 74
    0
  0
ENDTAB
  0
TABLE
  2
LAYER
  5
2
330
0
100
AcDbSymbolTable
 70
    1
  0
LAYER
  5
10
330
2
100
AcDbSymbolTableRecord
100
AcDbLayerTableRecord
  2
0
 70
    1
 62
    7
  6
CONTINUOUS
370
   -3
390
F
  0
LAYER
  5
4A
330
2
100
AcDbSymbolTableRecord
100
AcDbLayerTableRecord
  2
caminho
 70
    0
 62
    1
  6
CONTINUOUS
370
    0
390
F
  0
LAYER
  5
4B
330
2
100
AcDbSymbolTableRecord
100
AcDbLayerTableRecord
  2
mesas
 70
    0
 62
    5
  6
CONTINUOUS
370
   -3
390
F
  0
LAYER
  5
4C
330
2
100
AcDbSymbolTableRecord
100
AcDbLayerTableRecord
  2
predio
 70
    0
 62
  253
420
10526884
  6
CONTINUOUS
370
    0
390
F
  0
ENDTAB
  0
TABLE
  2
STYLE
  5
3
330
0
100
AcDbSymbolTable
 70
    3
  0
STYLE
  5
4D
330
2
100
AcDbSymbolTableRecord
100
AcDbTextStyleTableRecord
  2
Standard
 70
    0
 40
0
 41
1
 50
0
 71
    0
 42
1
  3
txt
  4

  0
ENDTAB
  0
TABLE
  2
VIEW
  5
6
330
0
100
AcDbSymbolTable
 70
    0
  0
ENDTAB
  0
TABLE
  2
UCS
  5
7
330
0
100
AcDbSymbolTable
 70
    0
  0
ENDTAB
  0
TABLE
  2
APPID
  5
9
330
0
100
AcDbSymbolTable
 70
    1
  0
APPID
  5
12
330
9
100
AcDbSymbolTableRecord
100
AcDbRegAppTableRecord
  2
ACAD
 70
    0
  0
APPID
  5
4E
330
9
100
AcDbSymbolTableRecord
100
AcDbRegAppTableRecord
  2
LibreCad
 70
    0
  0
ENDTAB
  0
TABLE
  2
DIMSTYLE
  5
A
330
0
100
AcDbSymbolTable
 70
    1
100
AcDbDimStyleTable
 71
    1
  0
DIMSTYLE
105
4F
330
A
100
AcDbSymbolTableRecord
100
AcDbDimStyleTableRecord
  2
Standard
 70
    0
 40
1
 41
2.5
 42
0.625
 43
0.38
 44
1.25
 45
0
 46
0
 47
0
 48
0
 49
1
140
2.5
141
0.09
142
0
143
25.4
144
1
145
0
146
1
147
0.625
148
0
 71
    0
 72
    0
 73
    0
 74
    1
 75
    0
 76
    0
 77
    0
 78
    8
 79
    0
170
    0
171
    2
172
    0
173
    0
174
    0
175
    0
176
    0
177
    0
178
    0
179
    0
271
    2
272
    4
273
    2
274
    2
275
    0
276
    0
277
    2
278
   44
279
    0
280
    0
281
    0
282
    0
283
    1
284
    0
285
    0
286
    0
288
    0
289
    3
340
standard
341

371
   -2
372
   -2
  0
ENDTAB
  0
TABLE
  2
BLOCK_RECORD
  5
1
330
0
100
AcDbSymbolTable
 70
    2
  0
BLOCK_RECORD
  5
1F
330
1
100
AcDbSymbolTableRecord
100
AcDbBlockTableRecord
  2
*Model_Space
 70
    0
280
    1
281
    0
  0
BLOCK_RECORD
  5
1E
330
1
100
AcDbSymbolTableRecord
100
AcDbBlockTableRecord
  2
*Paper_Space
 70
    0
280
    1
281
    0
  0
BLOCK_RECORD
  5
50
330
1
100
AcDbSymbolTableRecord
100
AcDbBlockTableRecord
  2
Pessoa_em_pe
 70
    0
280
    1
281
    0
  0
BLOCK_RECORD
  5
53
330
1
100
AcDbSymbolTableRecord
100
AcDbBlockTableRecord
  2
A$C34A27882
 70
    0
280
    1
281
    0
  0
ENDTAB
  0
ENDSEC
  0
SECTION
  2
BLOCKS
  0
BLOCK
  5
20
330
1F
100
AcDbEntity
  8
0
100
AcDbBlockBegin
  2
*Model_Space
 70
    0
 10
0
 20
0
 30
0
  3
*Model_Space
  1

  0
ENDBLK
  5
21
330
1F
100
AcDbEntity
  8
0
100
AcDbBlockEnd
  0
BLOCK
  5
1C
330
1B
100
AcDbEntity
  8
0
100
AcDbBlockBegin
  2
*Paper_Space
 70
    0
 10
0
 20
0
 30
0
  3
*Paper_Space
  1

  0
ENDBLK
  5
1D
330
1F
100
AcDbEntity
  8
0
100
AcDbBlockEnd
  0
BLOCK
  5
51
330
50
100
AcDbEntity
  8
0
100
AcDbBlockBegin
  2
Pessoa_em_pe
 70
    0
 10
0
 20
0
  3
Pessoa_em_pe
  1

  0
HATCH
  5
56
100
AcDbEntity
  8
0
  6
ByLayer
 62
  114
420
1284936
370
   -1
100
AcDbHatch
 10
0
 20
0
 30
0
210
0
220
0
230
1
  2
SOLID
 70
    1
 71
    0
 91
   15
 92
    0
 93
   16
 72
    2
 10
-1.843499664800854
 20
-10.18903531955414
 40
10.6860733006138
 50
35.46305289057856
 51
59.82181048321751
 73
    1
 72
    2
 10
2.207123372954811e-013
 20
-7.018810528294818
 40
7.018810528294789
 50
59.82181048323194
 51
90.0000000000018
 73
    1
 72
    2
 10
6.092970572524337e-011
 20
-7.01881052829473
 40
7.018810528294701
 50
90.00000000049739
 51
120.1781895179793
 73
    1
 72
    2
 10
1.843499664816274
 20
-10.18903531958076
 40
10.6860733006138
 50
120.1781895172941
 51
144.5372076886817
 73
    1
 72
    2
 10
4.75569193123415
 20
-12.26342982656866
 40
14.26154199257653
 50
144.5372076889232
 51
163.5613051845195
 73
    1
 72
    2
 10
9.353990070405608
 20
-13.62015770882855
 40
19.0558152767364
 50
163.5613051845134
 51
180.0000000000024
 73
    1
 72
    2
 10
9.353990070406137
 20
-13.62015770881668
 40
19.05581527673693
 50
180.0000000000381
 51
196.438694815339
 73
    1
 72
    2
 10
4.755691931234066
 20
-14.97688559107416
 40
14.26154199257715
 50
196.4386948152933
 51
215.4630566753013
 73
    1
 72
    2
 10
2.45376648676427
 20
-16.6165786677188
 40
11.43533355417743
 50
215.463122012867
 51
239.8218104840935
 73
    1
 72
    2
 10
-0.4799795994767939
 20
-21.66167563843974
 40
5.599250146401947
 50
239.8218104834964
 51
274.917550933348
 73
    1
 72
    2
 10
4.798317299048449e-011
 20
-20.22150488933479
 40
7.018810528294763
 50
270.0000000005382
 51
300.1781895166628
 73
    1
 72
    2
 10
-1.843499664799392
 20
-17.05128009810254
 40
10.68607330061364
 50
300.178189517001
 51
324.5369092758718
 73
    1
 72
    2
 10
-4.755691931226051
 20
-14.97688559106301
 40
14.26154199257714
 50
324.5369840901511
 51
343.561305184619
 73
    1
 72
    2
 10
-9.353990070405505
 20
-13.62015770882951
 40
19.05581527673721
 50
343.5613051846708
 51
5.073978640272267e-013
 73
    1
 72
    2
 10
-9.353990070404961
 20
-13.62015770882878
 40
19.05581527673666
 50
359.9999999999983
 51
16.43869481551062
 73
    1
 72
    2
 10
-4.755691931233368
 20
-12.26342982657004
 40
14.26154199257698
 50
16.43869481551719
 51
35.46298756134475
 73
    1
 97
    0
 92
    0
 93
    7
 72
    2
 10
9.137055833416841
 20
-44.84829394902781
 40
35.93506200233946
 50
71.3169367479726
 51
90.04097531906046
 73
    1
 72
    2
 10
-9.353990070404915
 20
-13.62015770882841
 40
19.05581527673662
 50
345.6995376316125
 51
2.798888119687895e-012
 73
    0
 72
    2
 10
-9.353990070405157
 20
-13.62015770881444
 40
19.05581527673687
 50
4.483309878990973e-011
 51
16.43869481537287
 73
    0
 72
    2
 10
-4.755691931233851
 20
-14.97688559107361
 40
14.26154199257734
 50
16.43869481533114
 51
35.46256874481946
 73
    0
 72
    2
 10
-1.843499664799204
 20
-17.0512800981028
 40
10.68607330061332
 50
35.46249394157604
 51
47.21398223063615
 73
    0
 72
    2
 10
9.654421547034097
 20
-3.279824971843144
 40
22.02573266287262
 50
258.9030806201518
 51
304.4772142642183
 73
    1
 72
    2
 10
18.72624343055439
 20
-16.49065973333889
 40
6.000000000000007
 50
304.477214264471
 51
71.31693674783743
 73
    1
 97
    0
 92
    0
 93
   12
 72
    2
 10
9.353990070404407
 20
-13.62015770882977
 40
19.05581527673611
 50
180.0000000000013
 51
196.4386948155181
 73
    0
 72
    2
 10
4.75569193123372
 20
-12.2634298265705
 40
14.26154199257715
 50
196.4386948155242
 51
204.7235146317335
 73
    0
 72
    2
 10
-22.07233865861868
 20
-48.68447649233745
 40
44.59861371999985
 50
71.87565380656244
 51
88.56564655018947
 73
    1
 72
    2
 10
-21.10615454301712
 20
-10.09795722251322
 40
6.000000000000036
 50
88.56564655056903
 51
213.8073303984613
 73
    1
 72
    2
 10
1.63451519451332
 20
5.12980794440168
 40
33.36828259299697
 50
213.8073303986798
 51
303.4749337124799
 73
    1
 72
    2
 10
9.654421547033955
 20
-3.27982497184307
 40
22.02573266287267
 50
61.86836498877619
 51
101.0969193798478
 73
    0
 72
    2
 10
-1.843499664799328
 20
-17.05128009810246
 40
10.68607330061365
 50
47.21398223063692
 51
59.82181048235216
 73
    0
 72
    2
 10
4.792855001767293e-011
 20
-20.22150488933473
 40
7.018810528294821
 50
59.8218104823514
 51
89.99999999946134
 73
    0
 72
    2
 10
-0.4799795994768448
 20
-21.66167563843991
 40
5.599250146401774
 50
85.08244906665129
 51
120.1781895153332
 73
    0
 72
    2
 10
2.453766486764432
 20
-16.61657866771865
 40
11.43533355417765
 50
120.1781895153335
 51
144.5375371621416
 73
    0
 72
    2
 10
4.755691931226206
 20
-14.97688559106303
 40
14.26154199257725
 50
144.5374718710032
 51
163.5613051846164
 73
    0
 72
    2
 10
9.353990070405324
 20
-13.62015770882945
 40
19.05581527673703
 50
163.5613051846683
 51
180.0000000000003
 73
    0
 97
    0
 92
    0
 93
    5
 72
    2
 10
17.83908337727164
 20
-13.89540989054543
 40
12.0396957256918
 50
78.96228891987161
 51
110.139105211422
 73
    1
 72
    2
 10
115.2760318735394
 20
9.318433968458926
 40
102.2780633853161
 50
186.6872551233848
 51
189.5877901558077
 73
    1
 72
    2
 10
-66.56231026916052
 20
-177.5962878785977
 40
188.1973146740561
 50
295.4891771115741
 51
297.5738717928073
 73
    0
 72
    2
 10
18.7262434305739
 20
-16.49065973332556
 40
6.000000000000071
 50
287.72258011491
 51
338.6521615750885
 73
    0
 72
    2
 10
-4.589137525297687
 20
-17.33901031915718
 40
29.06235472236216
 50
5.989456759084326
 51
31.67482713759632
 73
    1
 97
    0
 92
    0
 93
    3
 72
    2
 10
20.31411646539331
 20
-7.542673499258569
 40
8.266761315850331
 50
104.1641762592393
 51
143.2098584027962
 73
    1
 72
    2
 10
17.83908337727178
 20
-13.89540989054592
 40
12.03969572569231
 50
249.860894788388
 51
281.0377110798968
 73
    0
 72
    2
 10
13.69505932810735
 20
-4.813871076702526
 40
7.00523509897077
 50
22.98468063659836
 51
48.99649959809595
 73
    1
 97
    0
 92
    0
 93
    6
 72
    2
 10
5.170277016702929
 20
8.231787348849595
 40
3.705440574808813
 50
359.0172527292519
 51
103.5791859417465
 73
    1
 72
    2
 10
4.613936338631921
 20
10.53508480969248
 40
1.335905991140152
 50
103.5791859417712
 51
248.3445165439158
 73
    1
 72
    2
 10
3.372828681545731
 20
7.39100616971636
 40
2.044272752111576
 50
291.4667719872459
 51
0.4376403219286252
 73
    0
 72
    2
 10
43.22233384061843
 20
30.34874523299328
 40
44.23816318861546
 50
211.286029172901
 51
228.1263762216931
 73
    1
 72
    2
 10
20.31411646539392
 20
-7.542673499258069
 40
8.26676131585053
 50
216.790141597159
 51
255.8358237408088
 73
    0
 72
    2
 10
-112.6878715490454
 20
-150.1828642454163
 40
199.6312701824642
 50
48.99649959810412
 51
52.48725507168539
 73
    1
 97
    0
 92
    0
 93
    7
 72
    2
 10
-112.6878715490546
 20
-150.1828642454163
 40
199.6312701824698
 50
307.5127449283172
 51
307.8121100669727
 73
    0
 72
    2
 10
9.821077529398593
 20
4.462846724276975
 40
3.070426769730529
 50
267.7564641175025
 51
342.863420783392
 73
    0
 72
    2
 10
-42.75669795222627
 20
-11.74894025499075
 40
58.09082763756597
 50
342.8634207831338
 51
343.2123406807216
 73
    0
 72
    2
 10
-112.6878715490365
 20
-150.1828642453177
 40
199.6312701823821
 50
308.9683356044933
 51
309.0206404303106
 73
    0
 72
    1
 10
13.00003843574063
 20
4.914502973761017
 11
12.97973486327078
 21
7.473088668618714
 72
    2
 10
9.882492816774249
 20
7.945898166311266
 40
3.133122582296182
 50
351.3205195056973
 51
124.9231007726321
 73
    1
 72
    2
 10
5.170277016704338
 20
8.231787348855127
 40
3.705440574808881
 50
321.9661002552717
 51
0.9827472708494079
 73
    0
 97
    0
 92
    0
 93
    3
 72
    2
 10
-112.6878715490472
 20
-150.1828642454074
 40
199.6312701824585
 50
307.8121100669723
 51
308.9683356044795
 73
    0
 72
    2
 10
-42.75669795222037
 20
-11.74894025502717
 40
58.09082763757084
 50
16.78765931931447
 51
17.13657921691822
 73
    1
 72
    2
 10
9.821077529398192
 20
4.462846724278066
 40
3.070426769730367
 50
17.13657921688952
 51
92.24353588250712
 73
    1
 97
    0
 92
    0
 93
    6
 72
    2
 10
19.93558987585107
 20
-4.609127673736156
 40
16.65733515553266
 50
142.8576359375585
 51
167.6032369963279
 73
    1
 72
    2
 10
-1.84349966486043
 20
-10.18903531951834
 40
10.68607330061388
 50
301.0400126024485
 51
324.5372076897574
 73
    0
 72
    2
 10
-4.755691931224008
 20
-12.26342982658108
 40
14.2615419925758
 50
324.5372076893577
 51
326.7522885629176
 73
    0
 72
    2
 10
-66.56231026916242
 20
-177.5962878785984
 40
188.1973146740575
 50
293.065869728873
 51
295.4891771115745
 73
    0
 72
    2
 10
115.2760318735384
 20
9.318433968457008
 40
102.2780633853148
 50
170.4122098441931
 51
173.3127448765816
 73
    0
 72
    2
 10
43.22233384061839
 20
30.34874523299315
 40
44.23816318861524
 50
131.8736237782232
 51
145.7456776354634
 73
    0
 97
    0
 92
    0
 93
    5
 72
    2
 10
-4.755691931233484
 20
-12.26342982656958
 40
14.26154199257691
 50
326.7522885629736
 51
343.5613051845113
 73
    0
 72
    2
 10
-9.353990070405104
 20
-13.62015770883294
 40
19.05581527673792
 50
343.5613051844974
 51
345.6995376315994
 73
    0
 72
    2
 10
9.137055833416806
 20
-44.84829394902781
 40
35.93506200233946
 50
269.9590246809396
 51
288.51567069031
 73
    0
 72
    2
 10
-66.56231026916163
 20
-177.5962878786003
 40
188.197314674059
 50
62.42748686856261
 51
64.51082288842595
 73
    1
 72
    2
 10
-66.56231026916052
 20
-177.596287878597
 40
188.1973146740555
 50
64.51082288842582
 51
66.93413027112767
 73
    1
 97
    0
 92
    0
 93
    5
 72
    2
 10
-13.96532479696174
 20
5.036615480374694
 40
3.07042676973048
 50
17.13657921614178
 51
138.1102276041781
 73
    1
 72
    2
 10
-3.850812450517317
 20
-4.035358917613985
 40
16.65733515553109
 50
138.1102276044235
 51
145.9641638487546
 73
    1
 72
    2
 10
-119.8798205237839
 20
2.00246050056491
 40
102.2780633853154
 50
358.1591701825043
 51
3.156213367263097
 73
    0
 72
    2
 10
-7.888904546969618
 20
-56.04715791394842
 40
53.33910666391922
 50
259.3385832775921
 51
270.8760368585417
 73
    0
 72
    2
 10
-33.12058579077728
 20
-9.391813325033624
 40
26.88950490489032
 50
14.37883699935615
 51
34.76608204573407
 73
    1
 97
    0
 92
    0
 93
    7
 72
    2
 10
-119.8798205237862
 20
2.002460500554359
 40
102.2780633853181
 50
1.84082981750158
 51
2.528776951482131
 73
    1
 72
    2
 10
-19.98276913462901
 20
-5.306479417319461
 40
12.03969572569225
 50
79.07692686335059
 51
110.2537431549471
 73
    1
 72
    2
 10
2.707454919174719
 20
-5.113582671511493
 40
29.06235472236201
 50
157.541204937221
 51
183.8687737827276
 73
    1
 72
    2
 10
-21.10615454301713
 20
-10.09795722251326
 40
6.000000000000086
 50
210.2593834362156
 51
271.4343534498698
 73
    0
 72
    2
 10
-22.07233865861848
 20
-48.68447649234108
 40
44.59861372000348
 50
271.4343534498692
 51
272.5122666732642
 73
    0
 72
    2
 10
-7.888904546971096
 20
-56.04715791394791
 40
53.33910666391845
 50
256.7464833252511
 51
259.3385832775936
 73
    0
 72
    2
 10
-119.8798205237834
 20
2.00246050056495
 40
102.2780633853149
 50
356.8437866327369
 51
1.840829817495702
 73
    1
 97
    0
 92
    0
 93
    6
 72
    2
 10
-9.112429171218462
 20
18.02203838152442
 40
2.044272752111561
 50
170.3463276064374
 51
239.3171958600322
 73
    0
 72
    2
 10
-10.84106342034905
 20
20.92675908128654
 40
1.335905991140149
 50
300.8715154118498
 51
85.63684613262335
 73
    1
 72
    2
 10
-11.02133244898858
 20
18.56409168604958
 40
3.705440574808943
 50
85.63684613272939
 51
190.1987793453021
 73
    1
 72
    2
 10
130.6867208372571
 20
-118.9298087491877
 40
199.6312701824644
 50
136.7287770031729
 51
140.2195324767647
 73
    1
 72
    2
 10
-23.4432909408934
 20
0.5678577599967038
 40
8.266761315850523
 50
274.9481441838895
 51
313.9938263275412
 73
    0
 72
    2
 10
-52.12438825331638
 20
34.30123431517094
 40
44.23816318861545
 50
321.0896558532519
 51
337.9300029021358
 73
    1
 97
    0
 92
    0
 93
    3
 72
    2
 10
-17.34671385714351
 20
4.321526353384712
 40
7.005235098970745
 50
140.2195324767177
 51
166.231351438465
 73
    1
 72
    2
 10
-19.98276913462919
 20
-5.306479417319622
 40
12.03969572569239
 50
249.7462568447438
 51
280.9230731365631
 73
    0
 72
    2
 10
-23.44329094089344
 20
0.567857759996854
 40
8.266761315850312
 50
46.00617367227955
 51
85.05185581612439
 73
    1
 97
    0
 92
    0
 93
    7
 72
    2
 10
-52.12438825331581
 20
34.3012343151713
 40
44.23816318861517
 50
30.80702487880426
 51
37.79359277336352
 73
    0
 72
    1
 10
-17.16635002055204
 20
7.191261146258483
 11
-17.33933975279683
 21
5.738404211260757
 72
    2
 10
-3.850812450393731
 20
-4.035358917447073
 40
16.65733515553321
 50
215.9270206068386
 51
221.889772394866
 73
    0
 72
    2
 10
-13.96532479696909
 20
5.036615480398924
 40
3.070426769730398
 50
221.8897723955807
 51
342.8634207843287
 73
    0
 72
    2
 10
-33.12058579078166
 20
-9.391813325031116
 40
26.88950490489255
 50
325.2339179542755
 51
326.1567601760787
 73
    0
 72
    1
 10
-10.78712004100998
 20
5.583559178984131
 11
-10.80666746309748
 21
8.046857424724379
 72
    2
 10
-13.90390950959401
 20
8.519666922416368
 40
3.133122582296099
 50
351.3205195057076
 51
94.10802959071633
 73
    1
 97
    0
 75
    0
 76
    1
 98
    0
  0
ARC
  5
57
100
AcDbEntity
  8
0
  6
CONTINUOUS
 62
  256
370
   -1
100
AcDbCircle
 10
1.634515194513369
 20
5.129807944401562
 40
33.3682825929968
100
AcDbArc
 50
213.8073303987842
 51
303.4749337126418
  0
ARC
  5
58
100
AcDbEntity
  8
0
  6
CONTINUOUS
 62
  256
370
   -1
100
AcDbCircle
 10
9.137055833416525
 20
-44.84829394902843
 40
35.9350620023401
100
AcDbArc
 50
71.31693674815621
 51
90.0409753191054
  0
ARC
  5
59
100
AcDbEntity
  8
0
  6
CONTINUOUS
 62
  256
370
   -1
100
AcDbCircle
 10
9.65442154702032
 20
-3.279824971840554
 40
22.02573266287254
100
AcDbArc
 50
258.9030806204378
 51
304.4772142643104
  0
LINE
  5
5A
100
AcDbEntity
  8
0
  6
CONTINUOUS
 62
  256
370
   -1
100
AcDbLine
 10
-10.80666746309725
 20
8.046857424698118
 11
-10.78712004100998
 21
5.583559178984131
  0
ARC
  5
5B
100
AcDbEntity
  8
0
  6
CONTINUOUS
 62
  256
370
   -1
100
AcDbCircle
 10
-13.90390950959409
 20
8.519666922416233
 40
3.133122582296088
100
AcDbArc
 50
351.3205195050736
 51
94.10802958931274
  0
HATCH
  5
5C
100
AcDbEntity
  8
0
  6
ByLayer
 62
  114
420
1284936
370
   -1
100
AcDbHatch
 10
0
 20
0
 30
0
210
0
220
0
230
1
  2
SOLID
 70
    1
 71
    0
 91
    1
 92
    0
 93
    4
 72
    2
 10
-22.07233865861778
 20
-48.68447649233782
 40
44.59861371999993
 50
272.5122666732623
 51
288.1243461934364
 73
    0
 72
    2
 10
4.755691931189737
 20
-12.26342982666561
 40
14.26154199257692
 50
204.7235146321545
 51
215.4627923114914
 73
    0
 72
    2
 10
1.843499664857532
 20
-10.1890353195565
 40
10.68607330061365
 50
215.4627923110758
 51
224.1336485400108
 73
    0
 72
    2
 10
-7.888904546969635
 20
-56.04715791394919
 40
53.33910666392003
 50
87.78360533001045
 51
103.2535166747511
 73
    1
 97
    0
 75
    0
 76
    1
 98
    0
  0
ARC
  5
5D
100
AcDbEntity
  8
0
  6
CONTINUOUS
 62
  256
370
   -1
100
AcDbCircle
 10
-22.07233865861781
 20
-48.68447649233783
 40
44.59861371999994
100
AcDbArc
 50
71.87565380665534
 51
88.56564654990284
  0
ARC
  5
5E
100
AcDbEntity
  8
0
  6
CONTINUOUS
 62
  256
370
   -1
100
AcDbCircle
 10
9.353990070405416
 20
-13.62015770882934
 40
19.05581527673703
100
AcDbArc
 50
180
 51
196.4386948153584
  0
ARC
  5
5F
100
AcDbEntity
  8
0
  6
CONTINUOUS
 62
  256
370
   -1
100
AcDbCircle
 10
4.755691931233741
 20
-14.97688559107408
 40
14.26154199257694
100
AcDbArc
 50
196.4386948153584
 51
215.4627923109256
  0
ARC
  5
60
100
AcDbEntity
  8
0
  6
CONTINUOUS
 62
  256
370
   -1
100
AcDbCircle
 10
2.453766486840322
 20
-16.61657866782551
 40
11.43533355417742
100
AcDbArc
 50
215.4627923109256
 51
239.8218104828695
  0
ARC
  5
61
100
AcDbEntity
  8
0
  6
CONTINUOUS
 62
  256
370
   -1
100
AcDbCircle
 10
-0.479979599476792
 20
-21.6616756384399
 40
5.599250146401749
100
AcDbArc
 50
239.8218104828695
 51
274.9175509327105
  0
ARC
  5
62
100
AcDbEntity
  8
0
  6
CONTINUOUS
 62
  256
370
   -1
100
AcDbCircle
 10
0
 20
-20.22150488933474
 40
7.018810528294854
100
AcDbArc
 50
270
 51
300.1781895171305
  0
ARC
  5
63
100
AcDbEntity
  8
0
  6
CONTINUOUS
 62
  256
370
   -1
100
AcDbCircle
 10
-1.84349966479931
 20
-17.05128009810212
 40
10.68607330061387
100
AcDbArc
 50
300.1781895171305
 51
324.5372076890744
  0
ARC
  5
64
100
AcDbEntity
  8
0
  6
CONTINUOUS
 62
  256
370
   -1
100
AcDbCircle
 10
-4.755691931233741
 20
-14.97688559107408
 40
14.26154199257711
100
AcDbArc
 50
324.5372076890744
 51
343.56130518464
  0
ARC
  5
65
100
AcDbEntity
  8
0
  6
CONTINUOUS
 62
  256
370
   -1
100
AcDbCircle
 10
-9.353990070405416
 20
-13.62015770882934
 40
19.05581527673713
100
AcDbArc
 50
343.56130518464
 51
0
  0
ARC
  5
66
100
AcDbEntity
  8
0
  6
CONTINUOUS
 62
  256
370
   -1
100
AcDbCircle
 10
-9.353990070405416
 20
-13.62015770882934
 40
19.05581527673658
100
AcDbArc
 50
0
 51
16.43869481536
  0
ARC
  5
67
100
AcDbEntity
  8
0
  6
CONTINUOUS
 62
  256
370
   -1
100
AcDbCircle
 10
-4.755691931233741
 20
-12.26342982657004
 40
14.26154199257725
100
AcDbArc
 50
16.43869481536
 51
35.46279231092557
  0
ARC
  5
68
100
AcDbEntity
  8
0
  6
CONTINUOUS
 62
  256
370
   -1
100
AcDbCircle
 10
-1.84349966479931
 20
-10.18903531955655
 40
10.68607330061393
100
AcDbArc
 50
35.46279231092557
 51
59.82181048286954
  0
ARC
  5
69
100
AcDbEntity
  8
0
  6
CONTINUOUS
 62
  256
370
   -1
100
AcDbCircle
 10
0
 20
-7.018810528294835
 40
7.018810528294835
100
AcDbArc
 50
59.82181048286954
 51
90
  0
ARC
  5
6A
100
AcDbEntity
  8
0
  6
CONTINUOUS
 62
  256
370
   -1
100
AcDbCircle
 10
0
 20
-7.018810528294835
 40
7.01881052829467
100
AcDbArc
 50
90
 51
120.1781895171305
  0
ARC
  5
6B
100
AcDbEntity
  8
0
  6
CONTINUOUS
 62
  256
370
   -1
100
AcDbCircle
 10
1.843499664857517
 20
-10.18903531955655
 40
10.68607330061367
100
AcDbArc
 50
120.1781895171305
 51
144.5372076890744
  0
ARC
  5
6C
100
AcDbEntity
  8
0
  6
CONTINUOUS
 62
  256
370
   -1
100
AcDbCircle
 10
4.755691931233741
 20
-12.26342982657004
 40
14.26154199257693
100
AcDbArc
 50
144.5372076890744
 51
163.56130518464
  0
ARC
  5
6D
100
AcDbEntity
  8
0
  6
CONTINUOUS
 62
  256
370
   -1
100
AcDbCircle
 10
9.353990070405416
 20
-13.62015770882934
 40
19.0558152767363
100
AcDbArc
 50
163.56130518464
 51
180
  0
ARC
  5
6E
100
AcDbEntity
  8
0
  6
CONTINUOUS
 62
  256
370
   -1
100
AcDbCircle
 10
-21.10615454305662
 20
-10.09795722251218
 40
6
100
AcDbArc
 50
88.56564654990284
 51
213.8073303987842
  0
ARC
  5
6F
100
AcDbEntity
  8
0
  6
CONTINUOUS
 62
  256
370
   -1
100
AcDbCircle
 10
18.72624343057396
 20
-16.49065973332543
 40
6
100
AcDbArc
 50
304.4772142643104
 51
71.31693674815621
  0
ARC
  5
70
100
AcDbEntity
  8
0
  6
CONTINUOUS
 62
  256
370
   -1
100
AcDbCircle
 10
-8.446795837604441
 20
-4.59322758718261
 40
19.43128512759534
100
AcDbArc
 50
216.4972308748752
 51
275.7902107203022
  0
ARC
  5
71
100
AcDbEntity
  8
0
  6
CONTINUOUS
 62
  256
370
   -1
100
AcDbCircle
 10
-7.88890454696957
 20
-56.04715791394918
 40
53.33910666392002
100
AcDbArc
 50
87.78360533000912
 51
103.2535166747507
  0
ARC
  5
72
100
AcDbEntity
  8
0
  6
CONTINUOUS
 62
  256
370
   -1
100
AcDbCircle
 10
-66.56231026916066
 20
-177.596287878602
 40
188.19731467406
100
AcDbArc
 50
62.4274868685631
 51
66.93413027108063
  0
ARC
  5
73
100
AcDbEntity
  8
0
  6
CONTINUOUS
 62
  256
370
   -1
100
AcDbCircle
 10
-3.850812450516968
 20
-4.035358917616377
 40
16.65733515553282
100
AcDbArc
 50
138.1102276042151
 51
145.9641638488025
  0
ARC
  5
74
100
AcDbEntity
  8
0
  6
CONTINUOUS
 62
  256
370
   -1
100
AcDbCircle
 10
-13.96532479696907
 20
5.036615480398921
 40
3.070426769730402
100
AcDbArc
 50
17.13657921701177
 51
138.1102276042151
  0
LINE
  5
75
100
AcDbEntity
  8
0
  6
CONTINUOUS
 62
  256
370
   -1
100
AcDbLine
 10
-17.16635002056136
 20
7.191261146180494
 11
-17.33933975279683
 21
5.738404211260757
  0
LINE
  5
76
100
AcDbEntity
  8
0
  6
CONTINUOUS
 62
  256
370
   -1
100
AcDbLine
 10
6.507284467516001
 20
5.670409960315026
 11
6.447062573551193
 21
5.164635455113369
  0
ARC
  5
77
100
AcDbEntity
  8
0
  6
CONTINUOUS
 62
  256
370
   -1
100
AcDbCircle
 10
-42.75669795222348
 20
-11.7489402550207
 40
58.09082763757199
100
AcDbArc
 50
16.78765931936109
 51
17.13657921701177
  0
ARC
  5
78
100
AcDbEntity
  8
0
  6
CONTINUOUS
 62
  256
370
   -1
100
AcDbCircle
 10
9.821077529457398
 20
4.462846724279387
 40
3.070426769730402
100
AcDbArc
 50
17.13657921689587
 51
92.2435358828255
  0
ARC
  5
79
100
AcDbEntity
  8
0
  6
CONTINUOUS
 62
  256
370
   -1
100
AcDbCircle
 10
19.93558987585129
 20
-4.609127673735912
 40
16.65733515553282
100
AcDbArc
 50
142.8576359373241
 51
167.6032369963382
  0
ARC
  5
7A
100
AcDbEntity
  8
0
  6
CONTINUOUS
 62
  256
370
   -1
100
AcDbCircle
 10
9.882492816774175
 20
7.945898166311252
 40
3.133122582296088
100
AcDbArc
 50
351.3205195050736
 51
124.9231007714431
  0
LINE
  5
7B
100
AcDbEntity
  8
0
  6
CONTINUOUS
 62
  256
370
   -1
100
AcDbLine
 10
12.979734863271
 20
7.473088668578583
 11
13.00003843574086
 21
4.914502973747602
  0
ARC
  5
7C
100
AcDbEntity
  8
0
  6
CONTINUOUS
 62
  256
370
   -1
100
AcDbCircle
 10
2.707454919174779
 20
-5.113582671511522
 40
29.06235472236203
100
AcDbArc
 50
157.5412049372115
 51
183.8687737826056
  0
ARC
  5
7D
100
AcDbEntity
  8
0
  6
CONTINUOUS
 62
  256
370
   -1
100
AcDbCircle
 10
-11.02133244898868
 20
18.56409168604952
 40
3.705440574808917
100
AcDbArc
 50
85.63684613183706
 51
190.1987793453022
  0
ARC
  5
7E
100
AcDbEntity
  8
0
  6
CONTINUOUS
 62
  256
370
   -1
100
AcDbCircle
 10
-10.84106342034647
 20
20.92675908128805
 40
1.335905991140133
100
AcDbArc
 50
300.643256668226
 51
85.63684613183706
  0
ARC
  5
7F
100
AcDbEntity
  8
0
  6
CONTINUOUS
 62
  256
370
   -1
100
AcDbCircle
 10
-9.112429171218537
 20
18.0220383815242
 40
2.044272752111568
100
AcDbArc
 50
120.8319682404217
 51
189.6536723954256
  0
ARC
  5
80
100
AcDbEntity
  8
0
  6
CONTINUOUS
 62
  256
370
   -1
100
AcDbCircle
 10
-52.12438825331628
 20
34.3012343151706
 40
44.23816318861517
100
AcDbArc
 50
321.0896558534337
 51
337.9300029020971
  0
ARC
  5
81
100
AcDbEntity
  8
0
  6
CONTINUOUS
 62
  256
370
   -1
100
AcDbCircle
 10
-23.44329094089335
 20
0.5678577599967128
 40
8.266761315850497
100
AcDbArc
 50
46.00617367237953
 51
85.05185581582836
  0
ARC
  5
82
100
AcDbEntity
  8
0
  6
CONTINUOUS
 62
  256
370
   -1
100
AcDbCircle
 10
-19.98276913462905
 20
-5.306479417319479
 40
12.03969572569226
100
AcDbArc
 50
79.07692686359128
 51
110.2537431549478
  0
ARC
  5
83
100
AcDbEntity
  8
0
  6
CONTINUOUS
 62
  256
370
   -1
100
AcDbCircle
 10
-17.34671385714318
 20
4.321526353384996
 40
7.005235098970835
100
AcDbArc
 50
140.2195324767231
 51
166.2313514383363
  0
ARC
  5
84
100
AcDbEntity
  8
0
  6
CONTINUOUS
 62
  256
370
   -1
100
AcDbCircle
 10
130.6867208372568
 20
-118.929808749185
 40
199.6312701824623
100
AcDbArc
 50
136.7287770031729
 51
140.2195324767231
  0
ARC
  5
85
100
AcDbEntity
  8
0
  6
CONTINUOUS
 62
  256
370
   -1
100
AcDbCircle
 10
-119.8798205237835
 20
2.002460500566684
 40
102.278063385315
100
AcDbArc
 50
356.8437866327347
 51
2.528776951459028
  0
ARC
  5
86
100
AcDbEntity
  8
0
  6
CONTINUOUS
 62
  256
370
   -1
100
AcDbCircle
 10
115.2760318735381
 20
9.31843396845872
 40
102.278063385315
100
AcDbArc
 50
186.6872551234145
 51
189.5877901558816
  0
ARC
  5
87
100
AcDbEntity
  8
0
  6
CONTINUOUS
 62
  256
370
   -1
100
AcDbCircle
 10
-112.6878715490456
 20
-150.1828642454136
 40
199.6312701824623
100
AcDbArc
 50
48.99649959792555
 51
52.48725507168833
  0
ARC
  5
88
100
AcDbEntity
  8
0
  6
CONTINUOUS
 62
  256
370
   -1
100
AcDbCircle
 10
13.69505932810716
 20
-4.813871076702326
 40
7.005235098970835
100
AcDbArc
 50
22.98468063662109
 51
48.99649959792555
  0
ARC
  5
89
100
AcDbEntity
  8
0
  6
CONTINUOUS
 62
  256
370
   -1
100
AcDbCircle
 10
17.83908337727189
 20
-13.89540989054583
 40
12.03969572569226
100
AcDbArc
 50
78.96228892010456
 51
110.1391052113667
  0
ARC
  5
8A
100
AcDbEntity
  8
0
  6
CONTINUOUS
 62
  256
370
   -1
100
AcDbCircle
 10
20.31411646539345
 20
-7.542673499258654
 40
8.266761315850497
100
AcDbArc
 50
104.1641762586219
 51
143.2098584027436
  0
ARC
  5
8B
100
AcDbEntity
  8
0
  6
CONTINUOUS
 62
  256
370
   -1
100
AcDbCircle
 10
43.22233384061838
 20
30.34874523299297
 40
44.23816318861517
100
AcDbArc
 50
211.2860291726753
 51
228.126376221717
  0
ARC
  5
8C
100
AcDbEntity
  8
0
  6
CONTINUOUS
 62
  256
370
   -1
100
AcDbCircle
 10
3.372828681545797
 20
7.391006169716291
 40
2.044272752111568
100
AcDbArc
 50
359.5623596795971
 51
68.38406383453911
  0
ARC
  5
8D
100
AcDbEntity
  8
0
  6
CONTINUOUS
 62
  256
370
   -1
100
AcDbCircle
 10
4.613936338631901
 20
10.5350848096925
 40
1.335905991140133
100
AcDbArc
 50
103.5791859425261
 51
248.5727754060712
  0
ARC
  5
8E
100
AcDbEntity
  8
0
  6
CONTINUOUS
 62
  256
370
   -1
100
AcDbCircle
 10
5.170277016703039
 20
8.231787348856614
 40
3.705440574808917
100
AcDbArc
 50
359.0172527291436
 51
103.5791859425261
  0
ARC
  5
8F
100
AcDbEntity
  8
0
  6
CONTINUOUS
 62
  256
370
   -1
100
AcDbCircle
 10
-4.589137525297701
 20
-17.33901031915664
 40
29.06235472236203
100
AcDbArc
 50
5.989456759150272
 51
31.67482713769087
  0
ARC
  5
90
100
AcDbEntity
  8
0
  6
CONTINUOUS
 62
  256
370
   -1
100
AcDbCircle
 10
-33.12058579077711
 20
-9.39181332503429
 40
26.88950490489049
100
AcDbArc
 50
14.37883699936071
 51
34.76608204613982
  0
ENDBLK
  5
52
330
50
100
AcDbEntity
  8
0
100
AcDbBlockEnd
  0
BLOCK
  5
54
330
53
100
AcDbEntity
  8
0
100
AcDbBlockBegin
  2
A$C34A27882
 70
    0
 10
0
 20
0
  3
A$C34A27882
  1

  0
ENDBLK
  5
55
330
53
100
AcDbEntity
  8
0
100
AcDbBlockEnd
  0
ENDSEC
  0
SECTION
  2
ENTITIES
  0
LWPOLYLINE
  5
91
100
AcDbEntity
  8
mesas
  6
ByLayer
 62
  256
370
   -1
100
AcDbPolyline
 90
    4
 70
    1
 43
0
 10
2.746842687767433
 20
1.593841367666528
 10
3.946842687767433
 20
1.593841367666528
 10
3.946842687767433
 20
2.39384136766671
 10
2.746842687767433
 20
2.39384136766671
  0
LWPOLYLINE
  5
92
100
AcDbEntity
  8
mesas
  6
ByLayer
 62
  256
370
   -1
100
AcDbPolyline
 90
    4
 70
    1
 43
0
 10
0.5468426877674375
 20
1.593841367666528
 10
1.746842687767437
 20
1.593841367666528
 10
1.746842687767437
 20
2.39384136766671
 10
0.5468426877674375
 20
2.39384136766671
  0
LWPOLYLINE
  5
93
100
AcDbEntity
  8
mesas
  6
ByLayer
 62
  256
370
   -1
100
AcDbPolyline
 90
    4
 70
    1
 43
0
 10
0.5468426877674375
 20
3.89384136766671
 10
1.746842687767437
 20
3.89384136766671
 10
1.746842687767437
 20
4.693841367666664
 10
0.5468426877674375
 20
4.693841367666664
  0
LWPOLYLINE
  5
94
100
AcDbEntity
  8
mesas
  6
ByLayer
 62
  256
370
   -1
100
AcDbPolyline
 90
    4
 70
    1
 43
0
 10
0.5468426877674375
 20
6.193841367666664
 10
1.746842687767437
 20
6.193841367666664
 10
1.746842687767437
 20
6.993841367666619
 10
0.5468426877674375
 20
6.993841367666619
  0
LWPOLYLINE
  5
95
100
AcDbEntity
  8
mesas
  6
ByLayer
 62
  256
370
   -1
100
AcDbPolyline
 90
    4
 70
    1
 43
0
 10
0.5468426877674375
 20
8.493841367666619
 10
1.746842687767437
 20
8.493841367666619
 10
1.746842687767437
 20
9.293841367666573
 10
0.5468426877674375
 20
9.293841367666573
  0
LWPOLYLINE
  5
96
100
AcDbEntity
  8
mesas
  6
ByLayer
 62
  256
370
   -1
100
AcDbPolyline
 90
    4
 70
    1
 43
0
 10
0.5468426877674375
 20
10.79384136766657
 10
1.746842687767437
 20
10.79384136766657
 10
1.746842687767437
 20
11.59384136766653
 10
0.5468426877674375
 20
11.59384136766653
  0
LWPOLYLINE
  5
97
100
AcDbEntity
  8
mesas
  6
ByLayer
 62
  256
370
   -1
100
AcDbPolyline
 90
    4
 70
    1
 43
0
 10
0.5468426877674375
 20
13.09384136766653
 10
1.746842687767437
 20
13.09384136766653
 10
1.746842687767437
 20
13.89384136766671
 10
0.5468426877674375
 20
13.89384136766671
  0
LWPOLYLINE
  5
98
100
AcDbEntity
  8
mesas
  6
ByLayer
 62
  256
370
   -1
100
AcDbPolyline
 90
    4
 70
    1
 43
0
 10
0.5468426877674375
 20
15.39384136766671
 10
1.746842687767437
 20
15.39384136766671
 10
1.746842687767437
 20
16.19384136766666
 10
0.5468426877674375
 20
16.19384136766666
  0
LWPOLYLINE
  5
99
100
AcDbEntity
  8
mesas
  6
ByLayer
 62
  256
370
   -1
100
AcDbPolyline
 90
    4
 70
    1
 43
0
 10
3.946842687767433
 20
1.593841367666528
 10
5.146842687767432
 20
1.593841367666528
 10
5.146842687767432
 20
2.39384136766671
 10
3.946842687767433
 20
2.39384136766671
  0
LWPOLYLINE
  5
9A
100
AcDbEntity
  8
mesas
  6
ByLayer
 62
  256
370
   -1
100
AcDbPolyline
 90
    4
 70
    1
 43
0
 10
2.746842687767437
 20
15.39384136766671
 10
3.946842687767436
 20
15.39384136766671
 10
3.946842687767436
 20
16.19384136766666
 10
2.746842687767437
 20
16.19384136766666
  0
LWPOLYLINE
  5
9B
100
AcDbEntity
  8
mesas
  6
ByLayer
 62
  256
370
   -1
100
AcDbPolyline
 90
    4
 70
    1
 43
0
 10
2.746842687767437
 20
13.09384136766653
 10
3.946842687767436
 20
13.09384136766653
 10
3.946842687767436
 20
13.89384136766671
 10
2.746842687767437
 20
13.89384136766671
  0
LWPOLYLINE
  5
9C
100
AcDbEntity
  8
mesas
  6
ByLayer
 62
  256
370
   -1
100
AcDbPolyline
 90
    4
 70
    1
 43
0
 10
2.746842687767437
 20
10.79384136766657
 10
3.946842687767436
 20
10.79384136766657
 10
3.946842687767436
 20
11.59384136766653
 10
2.746842687767437
 20
11.59384136766653
  0
LWPOLYLINE
  5
9D
100
AcDbEntity
  8
mesas
  6
ByLayer
 62
  256
370
   -1
100
AcDbPolyline
 90
    4
 70
    1
 43
0
 10
2.746842687767437
 20
8.493841367666619
 10
3.946842687767436
 20
8.493841367666619
 10
3.946842687767436
 20
9.293841367666573
 10
2.746842687767437
 20
9.293841367666573
  0
LWPOLYLINE
  5
9E
100
AcDbEntity
  8
mesas
  6
ByLayer
 62
  256
370
   -1
100
AcDbPolyline
 90
    4
 70
    1
 43
0
 10
2.746842687767437
 20
6.193841367666664
 10
3.946842687767436
 20
6.193841367666664
 10
3.946842687767436
 20
6.993841367666619
 10
2.746842687767437
 20
6.993841367666619
  0
LWPOLYLINE
  5
9F
100
AcDbEntity
  8
mesas
  6
ByLayer
 62
  256
370
   -1
100
AcDbPolyline
 90
    4
 70
    1
 43
0
 10
2.746842687767437
 20
3.89384136766671
 10
3.946842687767436
 20
3.89384136766671
 10
3.946842687767436
 20
4.693841367666664
 10
2.746842687767437
 20
4.693841367666664
  0
LWPOLYLINE
  5
A0
100
AcDbEntity
  8
mesas
  6
ByLayer
 62
  256
370
   -1
100
AcDbPolyline
 90
    4
 70
    1
 43
0
 10
3.946842687767436
 20
10.79384136766657
 10
5.146842687767439
 20
10.79384136766657
 10
5.146842687767439
 20
11.59384136766653
 10
3.946842687767436
 20
11.59384136766653
  0
LWPOLYLINE
  5
A1
100
AcDbEntity
  8
mesas
  6
ByLayer
 62
  256
370
   -1
100
AcDbPolyline
 90
    4
 70
    1
 43
0
 10
3.946842687767436
 20
3.89384136766671
 10
5.146842687767439
 20
3.89384136766671
 10
5.146842687767439
 20
4.693841367666664
 10
3.946842687767436
 20
4.693841367666664
  0
LWPOLYLINE
  5
A2
100
AcDbEntity
  8
mesas
  6
ByLayer
 62
  256
370
   -1
100
AcDbPolyline
 90
    4
 70
    1
 43
0
 10
3.946842687767436
 20
8.493841367666619
 10
5.146842687767439
 20
8.493841367666619
 10
5.146842687767439
 20
9.293841367666573
 10
3.946842687767436
 20
9.293841367666573
  0
LWPOLYLINE
  5
A3
100
AcDbEntity
  8
mesas
  6
ByLayer
 62
  256
370
   -1
100
AcDbPolyline
 90
    4
 70
    1
 43
0
 10
3.946842687767436
 20
13.09384136766653
 10
5.146842687767439
 20
13.09384136766653
 10
5.146842687767439
 20
13.89384136766671
 10
3.946842687767436
 20
13.89384136766671
  0
LWPOLYLINE
  5
A4
100
AcDbEntity
  8
mesas
  6
ByLayer
 62
  256
370
   -1
100
AcDbPolyline
 90
    4
 70
    1
 43
0
 10
3.946842687767436
 20
15.39384136766671
 10
5.146842687767439
 20
15.39384136766671
 10
5.146842687767439
 20
16.19384136766666
 10
3.946842687767436
 20
16.19384136766666
  0
LWPOLYLINE
  5
A5
100
AcDbEntity
  8
mesas
  6
ByLayer
 62
  256
370
   -1
100
AcDbPolyline
 90
    4
 70
    1
 43
0
 10
3.946842687767436
 20
6.193841367666664
 10
5.146842687767439
 20
6.193841367666664
 10
5.146842687767439
 20
6.993841367666619
 10
3.946842687767436
 20
6.993841367666619
  0
LWPOLYLINE
  5
A6
100
AcDbEntity
  8
mesas
  6
ByLayer
 62
  256
370
   -1
100
AcDbPolyline
 90
    4
 70
    1
 43
0
 10
7.447281461586833
 20
3.709194506068405
 10
7.447281461586833
 20
4.909194506068451
 10
6.647281461586831
 20
4.909194506068451
 10
6.647281461586831
 20
3.709194506068405
  0
LWPOLYLINE
  5
A7
100
AcDbEntity
  8
mesas
  6
ByLayer
 62
  256
370
   -1
100
AcDbPolyline
 90
    4
 70
    1
 43
0
 10
7.447281461586833
 20
1.309194506068314
 10
7.447281461586833
 20
2.50919450606836
 10
6.647281461586831
 20
2.50919450606836
 10
6.647281461586831
 20
1.309194506068314
  0
LWPOLYLINE
  5
A8
100
AcDbEntity
  8
mesas
  6
ByLayer
 62
  256
370
   -1
100
AcDbPolyline
 90
    4
 70
    1
 43
0
 10
7.447281461586833
 20
4.909194506068451
 10
7.447281461586833
 20
6.109194506068496
 10
6.647281461586831
 20
6.109194506068496
 10
6.647281461586831
 20
4.909194506068451
  0
LWPOLYLINE
  5
A9
100
AcDbEntity
  8
mesas
  6
ByLayer
 62
  256
370
   -1
100
AcDbPolyline
 90
    4
 70
    1
 43
0
 10
7.447281461586833
 20
2.50919450606836
 10
7.447281461586833
 20
3.709194506068405
 10
6.647281461586831
 20
3.709194506068405
 10
6.647281461586831
 20
2.50919450606836
  0
LWPOLYLINE
  5
AA
100
AcDbEntity
  8
predio
  6
ByLayer
 62
  256
370
   -1
100
AcDbPolyline
 90
    4
 70
    1
 43
0
 10
12.13684268776744
 20
19.46468947180975
 10
11.97684268776744
 20
19.46468947180975
 10
11.97684268776744
 20
0.4746894718098247
 10
12.13684268776744
 20
0.4746894718098247
  0
LWPOLYLINE
  5
AB
100
AcDbEntity
  8
predio
  6
ByLayer
 62
  256
370
   -1
100
AcDbPolyline
 90
    4
 70
    1
 43
0
 10
0.5468426877674375
 20
0.4746894718098247
 10
0.3868426877674375
 20
0.4746894718098247
 10
0.3868426877674375
 20
19.46468947180975
 10
0.5468426877674375
 20
19.46468947180975
  0
LWPOLYLINE
  5
AC
100
AcDbEntity
  8
predio
  6
ByLayer
 62
  256
370
   -1
100
AcDbPolyline
 90
    4
 70
    1
 43
0
 10
0.5468426877674375
 20
19.46468947180975
 10
11.97684268776744
 20
19.46468947180975
 10
11.97684268776744
 20
19.30468947180975
 10
0.5468426877674375
 20
19.30468947180975
  0
LWPOLYLINE
  5
AD
100
AcDbEntity
  8
predio
  6
ByLayer
 62
  256
370
   -1
100
AcDbPolyline
 90
    4
 70
    1
 43
0
 10
2.106842687767436
 20
19.30468947180975
 10
2.256842687767438
 20
19.30468947180975
 10
2.256842687767438
 20
17.6146894718097
 10
2.106842687767436
 20
17.6146894718097
  0
LWPOLYLINE
  5
AE
100
AcDbEntity
  8
predio
  6
ByLayer
 62
  256
370
   -1
100
AcDbPolyline
 90
    4
 70
    1
 43
0
 10
2.256842687767438
 20
17.6146894718097
 10
7.936842687767438
 20
17.6146894718097
 10
7.936842687767438
 20
17.46468947180983
 10
2.256842687767438
 20
17.46468947180983
  0
LWPOLYLINE
  5
AF
100
AcDbEntity
  8
predio
  6
ByLayer
 62
  256
370
   -1
100
AcDbPolyline
 90
    4
 70
    1
 43
0
 10
7.196842687767436
 20
8.684689471809861
 10
11.97684268776744
 20
8.684689471809861
 10
11.97684268776744
 20
8.53468947180977
 10
7.196842687767436
 20
8.53468947180977
  0
LWPOLYLINE
  5
B0
100
AcDbEntity
  8
predio
  6
ByLayer
 62
  256
370
   -1
100
AcDbPolyline
 90
    4
 70
    1
 43
0
 10
9.846842687767438
 20
7.164689471809652
 10
11.97684268776744
 20
7.164689471809652
 10
11.97684268776744
 20
7.014689471809788
 10
9.846842687767438
 20
7.014689471809788
  0
LWPOLYLINE
  5
B1
100
AcDbEntity
  8
predio
  6
ByLayer
 62
  256
370
   -1
100
AcDbPolyline
 90
    4
 70
    1
 43
0
 10
4.656842687767437
 20
0.3146894718098247
 10
0.3868426877674375
 20
0.3146894718098247
 10
0.3868426877674375
 20
0.4746894718098247
 10
4.656842687767437
 20
0.4746894718098247
  0
LWPOLYLINE
  5
B2
100
AcDbEntity
  8
predio
  6
ByLayer
 62
  256
370
   -1
100
AcDbPolyline
 90
    4
 70
    1
 43
0
 10
6.456842687767438
 20
0.3146894718098247
 10
9.486842687767439
 20
0.3146894718098247
 10
9.486842687767439
 20
0.4746894718098247
 10
6.456842687767438
 20
0.4746894718098247
  0
LWPOLYLINE
  5
B3
100
AcDbEntity
  8
predio
  6
ByLayer
 62
  256
370
   -1
100
AcDbPolyline
 90
    4
 70
    1
 43
0
 10
12.13684268776744
 20
0.3146894718098247
 10
11.28684268776744
 20
0.3146894718098247
 10
11.28684268776744
 20
0.4746894718098247
 10
12.13684268776744
 20
0.4746894718098247
  0
LWPOLYLINE
  5
B4
100
AcDbEntity
  8
predio
  6
ByLayer
 62
  256
370
   -1
100
AcDbPolyline
 90
    4
 70
    1
 43
0
 10
9.846842687767438
 20
7.014689471809788
 10
9.683667385840762
 20
7.014689471809788
 10
9.683667385840762
 20
7.628687345071786
 10
9.846842687767438
 20
7.628687345071786
  0
LWPOLYLINE
  5
B5
100
AcDbEntity
  8
predio
  6
ByLayer
 62
  256
370
   -1
100
AcDbPolyline
 90
    4
 70
    1
 43
0
 10
7.936842687767439
 20
17.6146894718097
 10
8.093152261220029
 20
17.6146894718097
 10
8.093152261220029
 20
16.31047606854349
 10
7.936842687767439
 20
16.31047606854349
  0
LWPOLYLINE
  5
B6
100
AcDbEntity
  8
predio
  6
ByLayer
 62
  256
370
   -1
100
AcDbPolyline
 90
    4
 70
    1
 43
0
 10
8.093152261219675
 20
15.4104760685434
 10
7.936842687767438
 20
15.4104760685434
 10
7.936842687767438
 20
11.2546894718098
 10
8.093152261219675
 20
11.2546894718098
  0
LWPOLYLINE
  5
B7
100
AcDbEntity
  8
predio
  6
ByLayer
 62
  256
370
   -1
100
AcDbPolyline
 90
    4
 70
    1
 43
0
 10
7.046842687767434
 20
11.2546894718098
 10
8.574492995123162
 20
11.2546894718098
 10
8.574492995123162
 20
11.09572947151787
 10
7.046842687767434
 20
11.09572947151787
  0
LWPOLYLINE
  5
B8
100
AcDbEntity
  8
predio
  6
ByLayer
 62
  256
370
   -1
100
AcDbPolyline
 90
    4
 70
    1
 43
0
 10
11.07354112882844
 20
11.09452074508226
 10
9.474492995123191
 20
11.09452074508226
 10
9.474492995123191
 20
11.2546894718098
 10
11.07354112882844
 20
11.2546894718098
  0
LWPOLYLINE
  5
B9
100
AcDbEntity
  8
predio
  6
ByLayer
 62
  256
370
   -1
100
AcDbPolyline
 90
    4
 70
    1
 43
0
 10
9.996842687767437
 20
11.09452074508226
 10
10.14684268776744
 20
11.09452074508226
 10
10.14684268776744
 20
8.684689471809861
 10
9.996842687767437
 20
8.684689471809861
  0
LWPOLYLINE
  5
BA
100
AcDbEntity
  8
predio
  6
ByLayer
 62
  256
370
   -1
100
AcDbPolyline
 90
    4
 70
    1
 43
0
 10
7.046842687767434
 20
11.09572947151787
 10
7.196842687767435
 20
11.09572947151787
 10
7.196842687767435
 20
8.53468947180977
 10
7.046842687767434
 20
8.53468947180977
  0
LWPOLYLINE
  5
BB
100
AcDbEntity
  8
predio
  6
ByLayer
 62
  256
370
   -1
100
AcDbPolyline
 90
    4
 70
    1
 43
0
 10
2.256842687767438
 20
17.46468947180983
 10
1.549178681458907
 20
17.46468947180983
 10
1.549178681458907
 20
17.614147696555
 10
2.256842687767438
 20
17.614147696555
  0
LWPOLYLINE
  5
BC
100
AcDbEntity
  8
predio
  6
ByLayer
 62
  256
370
   -1
100
AcDbPolyline
 90
    4
 70
    1
 43
0
 10
11.92439972886464
 20
2.386970575168107
 10
10.49439972886464
 20
2.386970575168107
 10
10.49439972886464
 20
1.986970575168016
 10
11.92439972886464
 20
1.986970575168016
  0
LWPOLYLINE
  5
BD
100
AcDbEntity
  8
predio
  6
ByLayer
 62
  256
370
   -1
100
AcDbPolyline
 90
    4
 70
    1
 43
0
 10
10.49439972886464
 20
3.226970575168025
 10
10.89439972886464
 20
3.226970575168025
 10
10.89439972886464
 20
2.386970575168107
 10
10.49439972886464
 20
2.386970575168107
  0
LWPOLYLINE
  5
BE
100
AcDbEntity
  8
predio
  6
ByLayer
 62
  256
370
   -1
100
AcDbPolyline
 90
    4
 70
    1
 43
0
 10
6.87866279351865
 20
10.17468947180964
 10
6.078662793518649
 20
10.17468947180964
 10
6.078662793518649
 20
11.37468947180969
 10
6.87866279351865
 20
11.37468947180969
  0
LWPOLYLINE
  5
BF
100
AcDbEntity
  8
predio
  6
ByLayer
 62
  256
370
   -1
100
AcDbPolyline
 90
    4
 70
    1
 43
0
 10
6.298662793518648
 20
15.41468947180965
 10
6.87866279351865
 20
15.41468947180965
 10
6.87866279351865
 20
11.37468947180969
 10
6.298662793518648
 20
11.37468947180969
  0
LWPOLYLINE
  5
C0
100
AcDbEntity
  8
predio
  6
ByLayer
 62
  256
370
   -1
100
AcDbPolyline
 90
    4
 70
    1
 43
0
 10
5.076842687767439
 20
17.33555196059234
 10
5.841613050718255
 20
17.33555196059234
 10
5.841613050718255
 20
17.46468947180983
 10
5.076842687767439
 20
17.46468947180983
  0
LINE
  5
C1
100
AcDbEntity
  8
caminho
  6
ByLayer
 62
  256
370
   -1
100
AcDbLine
 10
5.839452807398938
 20
7.743841367666619
 11
5.839452807398938
 21
10.04384136766657
  0
LINE
  5
C2
100
AcDbEntity
  8
caminho
  6
ByLayer
 62
  256
370
   -1
100
AcDbLine
 10
5.839452807398938
 20
10.04384136766657
 11
5.839452807398938
 21
12.34384136766653
  0
LINE
  5
C3
100
AcDbEntity
  8
caminho
  6
ByLayer
 62
  256
370
   -1
100
AcDbLine
 10
5.839452807398938
 20
12.34384136766653
 11
5.839452807398938
 21
14.64384136766671
  0
LINE
  5
C4
100
AcDbEntity
  8
caminho
  6
ByLayer
 62
  256
370
   -1
100
AcDbLine
 10
5.839452807398938
 20
14.64384136766671
 11
5.839452807398938
 21
16.93053208478022
  0
LWPOLYLINE
  5
C5
100
AcDbEntity
  8
predio
  6
ByLayer
 62
  256
370
   -1
100
AcDbPolyline
 90
    4
 70
    1
 43
0
 10
9.486842687767439
 20
0.3146894718098247
 10
11.28467319437339
 20
0.3146894718098247
 10
11.28467319437339
 20
-0.034154579886118
 10
9.486842687767439
 20
-0.034154579886118
  0
LWPOLYLINE
  5
C6
100
AcDbEntity
  8
predio
  6
ByLayer
 62
  256
370
   -1
100
AcDbPolyline
 90
    4
 70
    1
 43
0
 10
4.658684696466497
 20
0.3142221349522857
 10
6.455215598476304
 20
0.3142221349522857
 10
6.455215598476304
 20
-0.03415457988611801
 10
4.658684696466497
 20
-0.03415457988611801
  0
LWPOLYLINE
  5
C7
100
AcDbEntity
  8
mesas
  6
ByLayer
 62
  256
370
   -1
100
AcDbPolyline
 90
    4
 70
    1
 43
0
 10
0.6387662684602541
 20
16.19384136766666
 10
1.03736496301408
 20
16.19384136766666
 10
1.03736496301408
 20
16.59249625973818
 10
0.6387662684602541
 20
16.59249625973818
  0
LWPOLYLINE
  5
C8
100
AcDbEntity
  8
mesas
  6
ByLayer
 62
  256
370
   -1
100
AcDbPolyline
 90
    4
 70
    1
 43
0
 10
1.246032775574545
 20
16.19384136766666
 10
1.644631470128371
 20
16.19384136766666
 10
1.644631470128371
 20
16.59249625973818
 10
1.246032775574545
 20
16.59249625973818
  0
LWPOLYLINE
  5
C9
100
AcDbEntity
  8
mesas
  6
ByLayer
 62
  256
370
   -1
100
AcDbPolyline
 90
    4
 70
    1
 43
0
 10
0.6387662684602541
 20
13.89384136766671
 10
1.03736496301408
 20
13.89384136766671
 10
1.03736496301408
 20
14.29249625973823
 10
0.6387662684602541
 20
14.29249625973823
  0
LWPOLYLINE
  5
CA
100
AcDbEntity
  8
mesas
  6
ByLayer
 62
  256
370
   -1
100
AcDbPolyline
 90
    4
 70
    1
 43
0
 10
1.246032775574545
 20
13.89384136766671
 10
1.644631470128371
 20
13.89384136766671
 10
1.644631470128371
 20
14.29249625973823
 10
1.246032775574545
 20
14.29249625973823
  0
LWPOLYLINE
  5
CB
100
AcDbEntity
  8
mesas
  6
ByLayer
 62
  256
370
   -1
100
AcDbPolyline
 90
    4
 70
    1
 43
0
 10
0.6387662684602541
 20
11.59384136766653
 10
1.03736496301408
 20
11.59384136766653
 10
1.03736496301408
 20
11.99249625973805
 10
0.6387662684602541
 20
11.99249625973805
  0
LWPOLYLINE
  5
CC
100
AcDbEntity
  8
mesas
  6
ByLayer
 62
  256
370
   -1
100
AcDbPolyline
 90
    4
 70
    1
 43
0
 10
1.246032775574545
 20
11.59384136766653
 10
1.644631470128371
 20
11.59384136766653
 10
1.644631470128371
 20
11.99249625973805
 10
1.246032775574545
 20
11.99249625973805
  0
LWPOLYLINE
  5
CD
100
AcDbEntity
  8
mesas
  6
ByLayer
 62
  256
370
   -1
100
AcDbPolyline
 90
    4
 70
    1
 43
0
 10
0.6387662684602541
 20
9.293841367666573
 10
1.03736496301408
 20
9.293841367666573
 10
1.03736496301408
 20
9.692496259738093
 10
0.6387662684602541
 20
9.692496259738093
  0
LWPOLYLINE
  5
CE
100
AcDbEntity
  8
mesas
  6
ByLayer
 62
  256
370
   -1
100
AcDbPolyline
 90
    4
 70
    1
 43
0
 10
1.246032775574545
 20
9.293841367666573
 10
1.644631470128371
 20
9.293841367666573
 10
1.644631470128371
 20
9.692496259738093
 10
1.246032775574545
 20
9.692496259738093
  0
LWPOLYLINE
  5
CF
100
AcDbEntity
  8
mesas
  6
ByLayer
 62
  256
370
   -1
100
AcDbPolyline
 90
    4
 70
    1
 43
0
 10
0.6387662684602541
 20
6.993841367666619
 10
1.03736496301408
 20
6.993841367666619
 10
1.03736496301408
 20
7.392496259738138
 10
0.6387662684602541
 20
7.392496259738138
  0
LWPOLYLINE
  5
D0
100
AcDbEntity
  8
mesas
  6
ByLayer
 62
  256
370
   -1
100
AcDbPolyline
 90
    4
 70
    1
 43
0
 10
1.246032775574545
 20
6.993841367666619
 10
1.644631470128371
 20
6.993841367666619
 10
1.644631470128371
 20
7.392496259738138
 10
1.246032775574545
 20
7.392496259738138
  0
LWPOLYLINE
  5
D1
100
AcDbEntity
  8
mesas
  6
ByLayer
 62
  256
370
   -1
100
AcDbPolyline
 90
    4
 70
    1
 43
0
 10
0.6387662684602541
 20
4.693841367666664
 10
1.03736496301408
 20
4.693841367666664
 10
1.03736496301408
 20
5.092496259738184
 10
0.6387662684602541
 20
5.092496259738184
  0
LWPOLYLINE
  5
D2
100
AcDbEntity
  8
mesas
  6
ByLayer
 62
  256
370
   -1
100
AcDbPolyline
 90
    4
 70
    1
 43
0
 10
1.246032775574545
 20
4.693841367666664
 10
1.644631470128371
 20
4.693841367666664
 10
1.644631470128371
 20
5.092496259738184
 10
1.246032775574545
 20
5.092496259738184
  0
LWPOLYLINE
  5
D3
100
AcDbEntity
  8
mesas
  6
ByLayer
 62
  256
370
   -1
100
AcDbPolyline
 90
    4
 70
    1
 43
0
 10
0.6387662684602541
 20
2.39384136766671
 10
1.03736496301408
 20
2.39384136766671
 10
1.03736496301408
 20
2.792496259738229
 10
0.6387662684602541
 20
2.792496259738229
  0
LWPOLYLINE
  5
D4
100
AcDbEntity
  8
mesas
  6
ByLayer
 62
  256
370
   -1
100
AcDbPolyline
 90
    4
 70
    1
 43
0
 10
1.246032775574545
 20
2.39384136766671
 10
1.644631470128371
 20
2.39384136766671
 10
1.644631470128371
 20
2.792496259738229
 10
1.246032775574545
 20
2.792496259738229
  0
LWPOLYLINE
  5
D5
100
AcDbEntity
  8
mesas
  6
ByLayer
 62
  256
370
   -1
100
AcDbPolyline
 90
    4
 70
    1
 43
0
 10
2.838766268460253
 20
16.19384136766666
 10
3.237364963014079
 20
16.19384136766666
 10
3.237364963014079
 20
16.59249625973818
 10
2.838766268460253
 20
16.59249625973818
  0
LWPOLYLINE
  5
D6
100
AcDbEntity
  8
mesas
  6
ByLayer
 62
  256
370
   -1
100
AcDbPolyline
 90
    4
 70
    1
 43
0
 10
3.446032775574544
 20
16.19384136766666
 10
3.84463147012837
 20
16.19384136766666
 10
3.84463147012837
 20
16.59249625973818
 10
3.446032775574544
 20
16.59249625973818
  0
LWPOLYLINE
  5
D7
100
AcDbEntity
  8
mesas
  6
ByLayer
 62
  256
370
   -1
100
AcDbPolyline
 90
    4
 70
    1
 43
0
 10
2.838766268460253
 20
2.39384136766671
 10
3.237364963014079
 20
2.39384136766671
 10
3.237364963014079
 20
2.792496259738229
 10
2.838766268460253
 20
2.792496259738229
  0
LWPOLYLINE
  5
D8
100
AcDbEntity
  8
mesas
  6
ByLayer
 62
  256
370
   -1
100
AcDbPolyline
 90
    4
 70
    1
 43
0
 10
3.446032775574544
 20
2.39384136766671
 10
3.84463147012837
 20
2.39384136766671
 10
3.84463147012837
 20
2.792496259738229
 10
3.446032775574544
 20
2.792496259738229
  0
LWPOLYLINE
  5
D9
100
AcDbEntity
  8
mesas
  6
ByLayer
 62
  256
370
   -1
100
AcDbPolyline
 90
    4
 70
    1
 43
0
 10
4.038766268460254
 20
16.19384136766666
 10
4.437364963014081
 20
16.19384136766666
 10
4.437364963014081
 20
16.59249625973818
 10
4.038766268460254
 20
16.59249625973818
  0
LWPOLYLINE
  5
DA
100
AcDbEntity
  8
mesas
  6
ByLayer
 62
  256
370
   -1
100
AcDbPolyline
 90
    4
 70
    1
 43
0
 10
4.646032775574545
 20
16.19384136766666
 10
5.044631470128371
 20
16.19384136766666
 10
5.044631470128371
 20
16.59249625973818
 10
4.646032775574545
 20
16.59249625973818
  0
LWPOLYLINE
  5
DB
100
AcDbEntity
  8
mesas
  6
ByLayer
 62
  256
370
   -1
100
AcDbPolyline
 90
    4
 70
    1
 43
0
 10
4.038766268460254
 20
2.39384136766671
 10
4.437364963014081
 20
2.39384136766671
 10
4.437364963014081
 20
2.792496259738229
 10
4.038766268460254
 20
2.792496259738229
  0
LWPOLYLINE
  5
DC
100
AcDbEntity
  8
mesas
  6
ByLayer
 62
  256
370
   -1
100
AcDbPolyline
 90
    4
 70
    1
 43
0
 10
4.646032775574545
 20
2.39384136766671
 10
5.044631470128371
 20
2.39384136766671
 10
5.044631470128371
 20
2.792496259738229
 10
4.646032775574545
 20
2.792496259738229
  0
LWPOLYLINE
  5
DD
100
AcDbEntity
  8
mesas
  6
ByLayer
 62
  256
370
   -1
100
AcDbPolyline
 90
    4
 70
    1
 43
0
 10
4.038766268460254
 20
13.89384136766671
 10
4.437364963014081
 20
13.89384136766671
 10
4.437364963014081
 20
14.29249625973823
 10
4.038766268460254
 20
14.29249625973823
  0
LWPOLYLINE
  5
DE
100
AcDbEntity
  8
mesas
  6
ByLayer
 62
  256
370
   -1
100
AcDbPolyline
 90
    4
 70
    1
 43
0
 10
4.646032775574545
 20
13.89384136766671
 10
5.044631470128371
 20
13.89384136766671
 10
5.044631470128371
 20
14.29249625973823
 10
4.646032775574545
 20
14.29249625973823
  0
LWPOLYLINE
  5
DF
100
AcDbEntity
  8
mesas
  6
ByLayer
 62
  256
370
   -1
100
AcDbPolyline
 90
    4
 70
    1
 43
0
 10
2.838766268460253
 20
13.89384136766671
 10
3.237364963014079
 20
13.89384136766671
 10
3.237364963014079
 20
14.29249625973823
 10
2.838766268460253
 20
14.29249625973823
  0
LWPOLYLINE
  5
E0
100
AcDbEntity
  8
mesas
  6
ByLayer
 62
  256
370
   -1
100
AcDbPolyline
 90
    4
 70
    1
 43
0
 10
3.446032775574544
 20
13.89384136766671
 10
3.84463147012837
 20
13.89384136766671
 10
3.84463147012837
 20
14.29249625973823
 10
3.446032775574544
 20
14.29249625973823
  0
LWPOLYLINE
  5
E1
100
AcDbEntity
  8
mesas
  6
ByLayer
 62
  256
370
   -1
100
AcDbPolyline
 90
    4
 70
    1
 43
0
 10
4.038766268460254
 20
11.59384136766653
 10
4.437364963014081
 20
11.59384136766653
 10
4.437364963014081
 20
11.99249625973805
 10
4.038766268460254
 20
11.99249625973805
  0
LWPOLYLINE
  5
E2
100
AcDbEntity
  8
mesas
  6
ByLayer
 62
  256
370
   -1
100
AcDbPolyline
 90
    4
 70
    1
 43
0
 10
4.646032775574545
 20
11.59384136766653
 10
5.044631470128371
 20
11.59384136766653
 10
5.044631470128371
 20
11.99249625973805
 10
4.646032775574545
 20
11.99249625973805
  0
LWPOLYLINE
  5
E3
100
AcDbEntity
  8
mesas
  6
ByLayer
 62
  256
370
   -1
100
AcDbPolyline
 90
    4
 70
    1
 43
0
 10
2.838766268460253
 20
11.59384136766653
 10
3.237364963014079
 20
11.59384136766653
 10
3.237364963014079
 20
11.99249625973805
 10
2.838766268460253
 20
11.99249625973805
  0
LWPOLYLINE
  5
E4
100
AcDbEntity
  8
mesas
  6
ByLayer
 62
  256
370
   -1
100
AcDbPolyline
 90
    4
 70
    1
 43
0
 10
3.446032775574544
 20
11.59384136766653
 10
3.84463147012837
 20
11.59384136766653
 10
3.84463147012837
 20
11.99249625973805
 10
3.446032775574544
 20
11.99249625973805
  0
LWPOLYLINE
  5
E5
100
AcDbEntity
  8
mesas
  6
ByLayer
 62
  256
370
   -1
100
AcDbPolyline
 90
    4
 70
    1
 43
0
 10
2.838766268460253
 20
9.293841367666573
 10
3.237364963014079
 20
9.293841367666573
 10
3.237364963014079
 20
9.692496259738093
 10
2.838766268460253
 20
9.692496259738093
  0
LWPOLYLINE
  5
E6
100
AcDbEntity
  8
mesas
  6
ByLayer
 62
  256
370
   -1
100
AcDbPolyline
 90
    4
 70
    1
 43
0
 10
3.446032775574544
 20
9.293841367666573
 10
3.84463147012837
 20
9.293841367666573
 10
3.84463147012837
 20
9.692496259738093
 10
3.446032775574544
 20
9.692496259738093
  0
LWPOLYLINE
  5
E7
100
AcDbEntity
  8
mesas
  6
ByLayer
 62
  256
370
   -1
100
AcDbPolyline
 90
    4
 70
    1
 43
0
 10
4.038766268460254
 20
9.293841367666573
 10
4.437364963014081
 20
9.293841367666573
 10
4.437364963014081
 20
9.692496259738093
 10
4.038766268460254
 20
9.692496259738093
  0
LWPOLYLINE
  5
E8
100
AcDbEntity
  8
mesas
  6
ByLayer
 62
  256
370
   -1
100
AcDbPolyline
 90
    4
 70
    1
 43
0
 10
4.646032775574545
 20
9.293841367666573
 10
5.044631470128371
 20
9.293841367666573
 10
5.044631470128371
 20
9.692496259738093
 10
4.646032775574545
 20
9.692496259738093
  0
LWPOLYLINE
  5
E9
100
AcDbEntity
  8
mesas
  6
ByLayer
 62
  256
370
   -1
100
AcDbPolyline
 90
    4
 70
    1
 43
0
 10
2.838766268460253
 20
6.993841367666619
 10
3.237364963014079
 20
6.993841367666619
 10
3.237364963014079
 20
7.392496259738138
 10
2.838766268460253
 20
7.392496259738138
  0
LWPOLYLINE
  5
EA
100
AcDbEntity
  8
mesas
  6
ByLayer
 62
  256
370
   -1
100
AcDbPolyline
 90
    4
 70
    1
 43
0
 10
3.446032775574544
 20
6.993841367666619
 10
3.84463147012837
 20
6.993841367666619
 10
3.84463147012837
 20
7.392496259738138
 10
3.446032775574544
 20
7.392496259738138
  0
LWPOLYLINE
  5
EB
100
AcDbEntity
  8
mesas
  6
ByLayer
 62
  256
370
   -1
100
AcDbPolyline
 90
    4
 70
    1
 43
0
 10
4.038766268460254
 20
6.993841367666619
 10
4.437364963014081
 20
6.993841367666619
 10
4.437364963014081
 20
7.392496259738138
 10
4.038766268460254
 20
7.392496259738138
  0
LWPOLYLINE
  5
EC
100
AcDbEntity
  8
mesas
  6
ByLayer
 62
  256
370
   -1
100
AcDbPolyline
 90
    4
 70
    1
 43
0
 10
4.646032775574545
 20
6.993841367666619
 10
5.044631470128371
 20
6.993841367666619
 10
5.044631470128371
 20
7.392496259738138
 10
4.646032775574545
 20
7.392496259738138
  0
LWPOLYLINE
  5
ED
100
AcDbEntity
  8
mesas
  6
ByLayer
 62
  256
370
   -1
100
AcDbPolyline
 90
    4
 70
    1
 43
0
 10
2.838766268460253
 20
4.693841367666664
 10
3.237364963014079
 20
4.693841367666664
 10
3.237364963014079
 20
5.092496259738184
 10
2.838766268460253
 20
5.092496259738184
  0
LWPOLYLINE
  5
EE
100
AcDbEntity
  8
mesas
  6
ByLayer
 62
  256
370
   -1
100
AcDbPolyline
 90
    4
 70
    1
 43
0
 10
3.446032775574544
 20
4.693841367666664
 10
3.84463147012837
 20
4.693841367666664
 10
3.84463147012837
 20
5.092496259738184
 10
3.446032775574544
 20
5.092496259738184
  0
LWPOLYLINE
  5
EF
100
AcDbEntity
  8
mesas
  6
ByLayer
 62
  256
370
   -1
100
AcDbPolyline
 90
    4
 70
    1
 43
0
 10
4.038766268460254
 20
4.693841367666664
 10
4.437364963014081
 20
4.693841367666664
 10
4.437364963014081
 20
5.092496259738184
 10
4.038766268460254
 20
5.092496259738184
  0
LWPOLYLINE
  5
F0
100
AcDbEntity
  8
mesas
  6
ByLayer
 62
  256
370
   -1
100
AcDbPolyline
 90
    4
 70
    1
 43
0
 10
4.646032775574545
 20
4.693841367666664
 10
5.044631470128371
 20
4.693841367666664
 10
5.044631470128371
 20
5.092496259738184
 10
4.646032775574545
 20
5.092496259738184
  0
LWPOLYLINE
  5
F1
100
AcDbEntity
  8
mesas
  6
ByLayer
 62
  256
370
   -1
100
AcDbPolyline
 90
    4
 70
    1
 43
0
 10
0.6439100869333787
 20
14.99518647559519
 10
1.042508781487205
 20
14.99518647559519
 10
1.042508781487205
 20
15.39384136766671
 10
0.6439100869333787
 20
15.39384136766671
  0
LWPOLYLINE
  5
F2
100
AcDbEntity
  8
mesas
  6
ByLayer
 62
  256
370
   -1
100
AcDbPolyline
 90
    4
 70
    1
 43
0
 10
1.251176594047669
 20
14.99518647559519
 10
1.649775288601496
 20
14.99518647559519
 10
1.649775288601496
 20
15.39384136766671
 10
1.251176594047669
 20
15.39384136766671
  0
LWPOLYLINE
  5
F3
100
AcDbEntity
  8
mesas
  6
ByLayer
 62
  256
370
   -1
100
AcDbPolyline
 90
    4
 70
    1
 43
0
 10
0.6439100869333787
 20
12.69518647559501
 10
1.042508781487205
 20
12.69518647559501
 10
1.042508781487205
 20
13.09384136766653
 10
0.6439100869333787
 20
13.09384136766653
  0
LWPOLYLINE
  5
F4
100
AcDbEntity
  8
mesas
  6
ByLayer
 62
  256
370
   -1
100
AcDbPolyline
 90
    4
 70
    1
 43
0
 10
1.251176594047669
 20
12.69518647559501
 10
1.649775288601496
 20
12.69518647559501
 10
1.649775288601496
 20
13.09384136766653
 10
1.251176594047669
 20
13.09384136766653
  0
LWPOLYLINE
  5
F5
100
AcDbEntity
  8
mesas
  6
ByLayer
 62
  256
370
   -1
100
AcDbPolyline
 90
    4
 70
    1
 43
0
 10
0.6439100869333787
 20
10.39518647559483
 10
1.042508781487205
 20
10.39518647559483
 10
1.042508781487205
 20
10.79384136766635
 10
0.6439100869333787
 20
10.79384136766635
  0
LWPOLYLINE
  5
F6
100
AcDbEntity
  8
mesas
  6
ByLayer
 62
  256
370
   -1
100
AcDbPolyline
 90
    4
 70
    1
 43
0
 10
1.251176594047669
 20
10.39518647559483
 10
1.649775288601496
 20
10.39518647559483
 10
1.649775288601496
 20
10.79384136766635
 10
1.251176594047669
 20
10.79384136766635
  0
LWPOLYLINE
  5
F7
100
AcDbEntity
  8
mesas
  6
ByLayer
 62
  256
370
   -1
100
AcDbPolyline
 90
    4
 70
    1
 43
0
 10
0.6439100869333787
 20
8.09518647559465
 10
1.042508781487205
 20
8.09518647559465
 10
1.042508781487205
 20
8.493841367666169
 10
0.6439100869333787
 20
8.493841367666169
  0
LWPOLYLINE
  5
F8
100
AcDbEntity
  8
mesas
  6
ByLayer
 62
  256
370
   -1
100
AcDbPolyline
 90
    4
 70
    1
 43
0
 10
1.251176594047669
 20
8.09518647559465
 10
1.649775288601496
 20
8.09518647559465
 10
1.649775288601496
 20
8.493841367666169
 10
1.251176594047669
 20
8.493841367666169
  0
LWPOLYLINE
  5
F9
100
AcDbEntity
  8
mesas
  6
ByLayer
 62
  256
370
   -1
100
AcDbPolyline
 90
    4
 70
    1
 43
0
 10
0.6439100869333787
 20
5.79518647559447
 10
1.042508781487205
 20
5.79518647559447
 10
1.042508781487205
 20
6.193841367665989
 10
0.6439100869333787
 20
6.193841367665989
  0
LWPOLYLINE
  5
FA
100
AcDbEntity
  8
mesas
  6
ByLayer
 62
  256
370
   -1
100
AcDbPolyline
 90
    4
 70
    1
 43
0
 10
1.251176594047669
 20
5.79518647559447
 10
1.649775288601496
 20
5.79518647559447
 10
1.649775288601496
 20
6.193841367665989
 10
1.251176594047669
 20
6.193841367665989
  0
LWPOLYLINE
  5
FB
100
AcDbEntity
  8
mesas
  6
ByLayer
 62
  256
370
   -1
100
AcDbPolyline
 90
    4
 70
    1
 43
0
 10
0.6439100869333787
 20
3.49518647559429
 10
1.042508781487205
 20
3.49518647559429
 10
1.042508781487205
 20
3.893841367665809
 10
0.6439100869333787
 20
3.893841367665809
  0
LWPOLYLINE
  5
FC
100
AcDbEntity
  8
mesas
  6
ByLayer
 62
  256
370
   -1
100
AcDbPolyline
 90
    4
 70
    1
 43
0
 10
1.251176594047669
 20
3.49518647559429
 10
1.649775288601496
 20
3.49518647559429
 10
1.649775288601496
 20
3.893841367665809
 10
1.251176594047669
 20
3.893841367665809
  0
LWPOLYLINE
  5
FD
100
AcDbEntity
  8
mesas
  6
ByLayer
 62
  256
370
   -1
100
AcDbPolyline
 90
    4
 70
    1
 43
0
 10
0.6439100869333787
 20
1.195186475594108
 10
1.042508781487205
 20
1.195186475594108
 10
1.042508781487205
 20
1.593841367665627
 10
0.6439100869333787
 20
1.593841367665627
  0
LWPOLYLINE
  5
FE
100
AcDbEntity
  8
mesas
  6
ByLayer
 62
  256
370
   -1
100
AcDbPolyline
 90
    4
 70
    1
 43
0
 10
1.251176594047669
 20
1.195186475594108
 10
1.649775288601496
 20
1.195186475594108
 10
1.649775288601496
 20
1.593841367665627
 10
1.251176594047669
 20
1.593841367665627
  0
LWPOLYLINE
  5
FF
100
AcDbEntity
  8
mesas
  6
ByLayer
 62
  256
370
   -1
100
AcDbPolyline
 90
    4
 70
    1
 43
0
 10
2.843910086933378
 20
14.99518647559429
 10
3.242508781487204
 20
14.99518647559429
 10
3.242508781487204
 20
15.39384136766581
 10
2.843910086933378
 20
15.39384136766581
  0
LWPOLYLINE
  5
100
100
AcDbEntity
  8
mesas
  6
ByLayer
 62
  256
370
   -1
100
AcDbPolyline
 90
    4
 70
    1
 43
0
 10
3.451176594047669
 20
14.99518647559429
 10
3.849775288601495
 20
14.99518647559429
 10
3.849775288601495
 20
15.39384136766581
 10
3.451176594047669
 20
15.39384136766581
  0
LWPOLYLINE
  5
101
100
AcDbEntity
  8
mesas
  6
ByLayer
 62
  256
370
   -1
100
AcDbPolyline
 90
    4
 70
    1
 43
0
 10
2.843910086933378
 20
12.69518647559411
 10
3.242508781487204
 20
12.69518647559411
 10
3.242508781487204
 20
13.09384136766563
 10
2.843910086933378
 20
13.09384136766563
  0
LWPOLYLINE
  5
102
100
AcDbEntity
  8
mesas
  6
ByLayer
 62
  256
370
   -1
100
AcDbPolyline
 90
    4
 70
    1
 43
0
 10
3.451176594047669
 20
12.69518647559411
 10
3.849775288601495
 20
12.69518647559411
 10
3.849775288601495
 20
13.09384136766563
 10
3.451176594047669
 20
13.09384136766563
  0
LWPOLYLINE
  5
103
100
AcDbEntity
  8
mesas
  6
ByLayer
 62
  256
370
   -1
100
AcDbPolyline
 90
    4
 70
    1
 43
0
 10
2.843910086933378
 20
10.39518647559393
 10
3.242508781487204
 20
10.39518647559393
 10
3.242508781487204
 20
10.79384136766545
 10
2.843910086933378
 20
10.79384136766545
  0
LWPOLYLINE
  5
104
100
AcDbEntity
  8
mesas
  6
ByLayer
 62
  256
370
   -1
100
AcDbPolyline
 90
    4
 70
    1
 43
0
 10
3.451176594047669
 20
10.39518647559393
 10
3.849775288601495
 20
10.39518647559393
 10
3.849775288601495
 20
10.79384136766545
 10
3.451176594047669
 20
10.79384136766545
  0
LWPOLYLINE
  5
105
100
AcDbEntity
  8
mesas
  6
ByLayer
 62
  256
370
   -1
100
AcDbPolyline
 90
    4
 70
    1
 43
0
 10
2.843910086933378
 20
8.095186475593749
 10
3.242508781487204
 20
8.095186475593749
 10
3.242508781487204
 20
8.493841367665269
 10
2.843910086933378
 20
8.493841367665269
  0
LWPOLYLINE
  5
106
100
AcDbEntity
  8
mesas
  6
ByLayer
 62
  256
370
   -1
100
AcDbPolyline
 90
    4
 70
    1
 43
0
 10
3.451176594047669
 20
8.095186475593749
 10
3.849775288601495
 20
8.095186475593749
 10
3.849775288601495
 20
8.493841367665269
 10
3.451176594047669
 20
8.493841367665269
  0
LWPOLYLINE
  5
107
100
AcDbEntity
  8
mesas
  6
ByLayer
 62
  256
370
   -1
100
AcDbPolyline
 90
    4
 70
    1
 43
0
 10
2.843910086933378
 20
5.795186475593569
 10
3.242508781487204
 20
5.795186475593569
 10
3.242508781487204
 20
6.193841367665089
 10
2.843910086933378
 20
6.193841367665089
  0
LWPOLYLINE
  5
108
100
AcDbEntity
  8
mesas
  6
ByLayer
 62
  256
370
   -1
100
AcDbPolyline
 90
    4
 70
    1
 43
0
 10
3.451176594047669
 20
5.795186475593569
 10
3.849775288601495
 20
5.795186475593569
 10
3.849775288601495
 20
6.193841367665089
 10
3.451176594047669
 20
6.193841367665089
  0
LWPOLYLINE
  5
109
100
AcDbEntity
  8
mesas
  6
ByLayer
 62
  256
370
   -1
100
AcDbPolyline
 90
    4
 70
    1
 43
0
 10
2.843910086933378
 20
3.495186475593389
 10
3.242508781487204
 20
3.495186475593389
 10
3.242508781487204
 20
3.893841367664908
 10
2.843910086933378
 20
3.893841367664908
  0
LWPOLYLINE
  5
10A
100
AcDbEntity
  8
mesas
  6
ByLayer
 62
  256
370
   -1
100
AcDbPolyline
 90
    4
 70
    1
 43
0
 10
3.451176594047669
 20
3.495186475593389
 10
3.849775288601495
 20
3.495186475593389
 10
3.849775288601495
 20
3.893841367664908
 10
3.451176594047669
 20
3.893841367664908
  0
LWPOLYLINE
  5
10B
100
AcDbEntity
  8
mesas
  6
ByLayer
 62
  256
370
   -1
100
AcDbPolyline
 90
    4
 70
    1
 43
0
 10
2.843910086933378
 20
1.195186475593209
 10
3.242508781487204
 20
1.195186475593209
 10
3.242508781487204
 20
1.593841367664728
 10
2.843910086933378
 20
1.593841367664728
  0
LWPOLYLINE
  5
10C
100
AcDbEntity
  8
mesas
  6
ByLayer
 62
  256
370
   -1
100
AcDbPolyline
 90
    4
 70
    1
 43
0
 10
3.451176594047669
 20
1.195186475593209
 10
3.849775288601495
 20
1.195186475593209
 10
3.849775288601495
 20
1.593841367664728
 10
3.451176594047669
 20
1.593841367664728
  0
LWPOLYLINE
  5
10D
100
AcDbEntity
  8
mesas
  6
ByLayer
 62
  256
370
   -1
100
AcDbPolyline
 90
    4
 70
    1
 43
0
 10
4.043910086933383
 20
14.99518647559339
 10
4.442508781487209
 20
14.99518647559339
 10
4.442508781487209
 20
15.39384136766491
 10
4.043910086933383
 20
15.39384136766491
  0
LWPOLYLINE
  5
10E
100
AcDbEntity
  8
mesas
  6
ByLayer
 62
  256
370
   -1
100
AcDbPolyline
 90
    4
 70
    1
 43
0
 10
4.651176594047673
 20
14.99518647559339
 10
5.049775288601499
 20
14.99518647559339
 10
5.049775288601499
 20
15.39384136766491
 10
4.651176594047673
 20
15.39384136766491
  0
LWPOLYLINE
  5
10F
100
AcDbEntity
  8
mesas
  6
ByLayer
 62
  256
370
   -1
100
AcDbPolyline
 90
    4
 70
    1
 43
0
 10
4.043910086933383
 20
12.69518647559321
 10
4.442508781487209
 20
12.69518647559321
 10
4.442508781487209
 20
13.09384136766473
 10
4.043910086933383
 20
13.09384136766473
  0
LWPOLYLINE
  5
110
100
AcDbEntity
  8
mesas
  6
ByLayer
 62
  256
370
   -1
100
AcDbPolyline
 90
    4
 70
    1
 43
0
 10
4.651176594047673
 20
12.69518647559321
 10
5.049775288601499
 20
12.69518647559321
 10
5.049775288601499
 20
13.09384136766473
 10
4.651176594047673
 20
13.09384136766473
  0
LWPOLYLINE
  5
111
100
AcDbEntity
  8
mesas
  6
ByLayer
 62
  256
370
   -1
100
AcDbPolyline
 90
    4
 70
    1
 43
0
 10
4.043910086933383
 20
10.39518647559303
 10
4.442508781487209
 20
10.39518647559303
 10
4.442508781487209
 20
10.79384136766455
 10
4.043910086933383
 20
10.79384136766455
  0
LWPOLYLINE
  5
112
100
AcDbEntity
  8
mesas
  6
ByLayer
 62
  256
370
   -1
100
AcDbPolyline
 90
    4
 70
    1
 43
0
 10
4.651176594047673
 20
10.39518647559303
 10
5.049775288601499
 20
10.39518647559303
 10
5.049775288601499
 20
10.79384136766455
 10
4.651176594047673
 20
10.79384136766455
  0
LWPOLYLINE
  5
113
100
AcDbEntity
  8
mesas
  6
ByLayer
 62
  256
370
   -1
100
AcDbPolyline
 90
    4
 70
    1
 43
0
 10
4.043910086933383
 20
8.09518647559285
 10
4.442508781487209
 20
8.09518647559285
 10
4.442508781487209
 20
8.49384136766437
 10
4.043910086933383
 20
8.49384136766437
  0
LWPOLYLINE
  5
114
100
AcDbEntity
  8
mesas
  6
ByLayer
 62
  256
370
   -1
100
AcDbPolyline
 90
    4
 70
    1
 43
0
 10
4.651176594047673
 20
8.09518647559285
 10
5.049775288601499
 20
8.09518647559285
 10
5.049775288601499
 20
8.49384136766437
 10
4.651176594047673
 20
8.49384136766437
  0
LWPOLYLINE
  5
115
100
AcDbEntity
  8
mesas
  6
ByLayer
 62
  256
370
   -1
100
AcDbPolyline
 90
    4
 70
    1
 43
0
 10
4.043910086933383
 20
5.79518647559267
 10
4.442508781487209
 20
5.79518647559267
 10
4.442508781487209
 20
6.19384136766419
 10
4.043910086933383
 20
6.19384136766419
  0
LWPOLYLINE
  5
116
100
AcDbEntity
  8
mesas
  6
ByLayer
 62
  256
370
   -1
100
AcDbPolyline
 90
    4
 70
    1
 43
0
 10
4.651176594047673
 20
5.79518647559267
 10
5.049775288601499
 20
5.79518647559267
 10
5.049775288601499
 20
6.19384136766419
 10
4.651176594047673
 20
6.19384136766419
  0
LWPOLYLINE
  5
117
100
AcDbEntity
  8
mesas
  6
ByLayer
 62
  256
370
   -1
100
AcDbPolyline
 90
    4
 70
    1
 43
0
 10
4.043910086933383
 20
3.49518647559249
 10
4.442508781487209
 20
3.49518647559249
 10
4.442508781487209
 20
3.89384136766401
 10
4.043910086933383
 20
3.89384136766401
  0
LWPOLYLINE
  5
118
100
AcDbEntity
  8
mesas
  6
ByLayer
 62
  256
370
   -1
100
AcDbPolyline
 90
    4
 70
    1
 43
0
 10
4.651176594047673
 20
3.49518647559249
 10
5.049775288601499
 20
3.49518647559249
 10
5.049775288601499
 20
3.89384136766401
 10
4.651176594047673
 20
3.89384136766401
  0
LWPOLYLINE
  5
119
100
AcDbEntity
  8
mesas
  6
ByLayer
 62
  256
370
   -1
100
AcDbPolyline
 90
    4
 70
    1
 43
0
 10
4.043910086933383
 20
1.19518647559231
 10
4.442508781487209
 20
1.19518647559231
 10
4.442508781487209
 20
1.593841367663829
 10
4.043910086933383
 20
1.593841367663829
  0
LWPOLYLINE
  5
11A
100
AcDbEntity
  8
mesas
  6
ByLayer
 62
  256
370
   -1
100
AcDbPolyline
 90
    4
 70
    1
 43
0
 10
4.651176594047673
 20
1.19518647559231
 10
5.049775288601499
 20
1.19518647559231
 10
5.049775288601499
 20
1.593841367663829
 10
4.651176594047673
 20
1.593841367663829
  0
LWPOLYLINE
  5
11B
100
AcDbEntity
  8
mesas
  6
ByLayer
 62
  256
370
   -1
100
AcDbPolyline
 90
    4
 70
    1
 43
0
 10
7.447281461586833
 20
5.61282077381188
 10
7.84588015614066
 20
5.61282077381188
 10
7.84588015614066
 20
6.0114756658834
 10
7.447281461586833
 20
6.0114756658834
  0
LWPOLYLINE
  5
11C
100
AcDbEntity
  8
mesas
  6
ByLayer
 62
  256
370
   -1
100
AcDbPolyline
 90
    4
 70
    1
 43
0
 10
6.248682767033005
 20
5.61282077381188
 10
6.647281461586831
 20
5.61282077381188
 10
6.647281461586831
 20
6.0114756658834
 10
6.248682767033005
 20
6.0114756658834
  0
LWPOLYLINE
  5
11D
100
AcDbEntity
  8
mesas
  6
ByLayer
 62
  256
370
   -1
100
AcDbPolyline
 90
    4
 70
    1
 43
0
 10
6.248682767033005
 20
5.011986886106111
 10
6.647281461586831
 20
5.011986886106111
 10
6.647281461586831
 20
5.410641778177631
 10
6.248682767033005
 20
5.410641778177631
  0
LWPOLYLINE
  5
11E
100
AcDbEntity
  8
mesas
  6
ByLayer
 62
  256
370
   -1
100
AcDbPolyline
 90
    4
 70
    1
 43
0
 10
7.447281461586833
 20
5.011986886106111
 10
7.84588015614066
 20
5.011986886106111
 10
7.84588015614066
 20
5.410641778177631
 10
7.447281461586833
 20
5.410641778177631
  0
LWPOLYLINE
  5
11F
100
AcDbEntity
  8
mesas
  6
ByLayer
 62
  256
370
   -1
100
AcDbPolyline
 90
    4
 70
    1
 43
0
 10
7.447281461586833
 20
4.415240303758885
 10
7.84588015614066
 20
4.415240303758885
 10
7.84588015614066
 20
4.813895195830405
 10
7.447281461586833
 20
4.813895195830405
  0
LWPOLYLINE
  5
120
100
AcDbEntity
  8
mesas
  6
ByLayer
 62
  256
370
   -1
100
AcDbPolyline
 90
    4
 70
    1
 43
0
 10
6.248682767033005
 20
4.415240303758885
 10
6.647281461586831
 20
4.415240303758885
 10
6.647281461586831
 20
4.813895195830405
 10
6.248682767033005
 20
4.813895195830405
  0
LWPOLYLINE
  5
121
100
AcDbEntity
  8
mesas
  6
ByLayer
 62
  256
370
   -1
100
AcDbPolyline
 90
    4
 70
    1
 43
0
 10
6.248682767033005
 20
3.814406416053116
 10
6.647281461586831
 20
3.814406416053116
 10
6.647281461586831
 20
4.213061308124636
 10
6.248682767033005
 20
4.213061308124636
  0
LWPOLYLINE
  5
122
100
AcDbEntity
  8
mesas
  6
ByLayer
 62
  256
370
   -1
100
AcDbPolyline
 90
    4
 70
    1
 43
0
 10
7.447281461586833
 20
3.814406416053116
 10
7.84588015614066
 20
3.814406416053116
 10
7.84588015614066
 20
4.213061308124636
 10
7.447281461586833
 20
4.213061308124636
  0
LWPOLYLINE
  5
123
100
AcDbEntity
  8
mesas
  6
ByLayer
 62
  256
370
   -1
100
AcDbPolyline
 90
    4
 70
    1
 43
0
 10
7.447281461586833
 20
3.21765983370589
 10
7.84588015614066
 20
3.21765983370589
 10
7.84588015614066
 20
3.61631472577741
 10
7.447281461586833
 20
3.61631472577741
  0
LWPOLYLINE
  5
124
100
AcDbEntity
  8
mesas
  6
ByLayer
 62
  256
370
   -1
100
AcDbPolyline
 90
    4
 70
    1
 43
0
 10
6.248682767033005
 20
3.21765983370589
 10
6.647281461586831
 20
3.21765983370589
 10
6.647281461586831
 20
3.61631472577741
 10
6.248682767033005
 20
3.61631472577741
  0
LWPOLYLINE
  5
125
100
AcDbEntity
  8
mesas
  6
ByLayer
 62
  256
370
   -1
100
AcDbPolyline
 90
    4
 70
    1
 43
0
 10
6.248682767033005
 20
2.616825946000121
 10
6.647281461586831
 20
2.616825946000121
 10
6.647281461586831
 20
3.015480838071641
 10
6.248682767033005
 20
3.015480838071641
  0
LWPOLYLINE
  5
126
100
AcDbEntity
  8
mesas
  6
ByLayer
 62
  256
370
   -1
100
AcDbPolyline
 90
    4
 70
    1
 43
0
 10
7.447281461586833
 20
2.616825946000121
 10
7.84588015614066
 20
2.616825946000121
 10
7.84588015614066
 20
3.015480838071641
 10
7.447281461586833
 20
3.015480838071641
  0
LWPOLYLINE
  5
127
100
AcDbEntity
  8
mesas
  6
ByLayer
 62
  256
370
   -1
100
AcDbPolyline
 90
    4
 70
    1
 43
0
 10
7.447281461586833
 20
2.020079363652895
 10
7.84588015614066
 20
2.020079363652895
 10
7.84588015614066
 20
2.418734255724415
 10
7.447281461586833
 20
2.418734255724415
  0
LWPOLYLINE
  5
128
100
AcDbEntity
  8
mesas
  6
ByLayer
 62
  256
370
   -1
100
AcDbPolyline
 90
    4
 70
    1
 43
0
 10
6.248682767033005
 20
2.020079363652895
 10
6.647281461586831
 20
2.020079363652895
 10
6.647281461586831
 20
2.418734255724415
 10
6.248682767033005
 20
2.418734255724415
  0
LWPOLYLINE
  5
129
100
AcDbEntity
  8
mesas
  6
ByLayer
 62
  256
370
   -1
100
AcDbPolyline
 90
    4
 70
    1
 43
0
 10
6.248682767033005
 20
1.419245475947126
 10
6.647281461586831
 20
1.419245475947126
 10
6.647281461586831
 20
1.817900368018646
 10
6.248682767033005
 20
1.817900368018646
  0
LWPOLYLINE
  5
12A
100
AcDbEntity
  8
mesas
  6
ByLayer
 62
  256
370
   -1
100
AcDbPolyline
 90
    4
 70
    1
 43
0
 10
7.447281461586833
 20
1.419245475947126
 10
7.84588015614066
 20
1.419245475947126
 10
7.84588015614066
 20
1.817900368018646
 10
7.447281461586833
 20
1.817900368018646
  0
LINE
  5
12B
100
AcDbEntity
  8
caminho
  6
ByLayer
 62
  256
370
   -1
100
AcDbLine
 10
10.09190299019076
 20
6.352053378387154
 11
10.09190299019076
 21
0.3146894718098247
  0
LWPOLYLINE
  5
12C
100
AcDbEntity
  8
predio
  6
ByLayer
 62
  256
370
   -1
100
AcDbPolyline
 90
    4
 70
    1
 43
0
 10
10.22881168085869
 20
2.609628492610874
 10
10.33754620138414
 20
2.609628492610874
 10
10.33754620138414
 20
2.516427475017628
 10
10.22881168085869
 20
2.516427475017628
  0
LWPOLYLINE
  5
12D
100
AcDbEntity
  8
predio
  6
ByLayer
 62
  256
370
   -1
100
AcDbPolyline
 90
    4
 70
    1
 43
0
 10
5.910804503382372
 20
10.86568530107924
 10
6.019539023907824
 20
10.86568530107924
 10
6.019539023907824
 20
10.772484283486
 10
5.910804503382372
 20
10.772484283486
  0
LINE
  5
12E
100
AcDbEntity
  8
caminho
  6
ByLayer
 62
  256
370
   -1
100
AcDbLine
 10
5.839452807398938
 20
16.93053208478022
 11
4.545612891076515
 21
16.93053208478022
  0
LINE
  5
12F
100
AcDbEntity
  8
caminho
  6
ByLayer
 62
  256
370
   -1
100
AcDbLine
 10
4.545612891076515
 20
16.93053208478022
 11
3.350175734657042
 21
16.93053208478022
  0
LINE
  5
130
100
AcDbEntity
  8
caminho
  6
ByLayer
 62
  256
370
   -1
100
AcDbLine
 10
4.549390040831307
 20
14.64384136766671
 11
3.34714882883985
 21
14.64384136766671
  0
LINE
  5
131
100
AcDbEntity
  8
caminho
  6
ByLayer
 62
  256
370
   -1
100
AcDbLine
 10
4.556690951151432
 20
12.32779179807635
 11
3.364533434861813
 21
12.32779179807635
  0
LINE
  5
132
100
AcDbEntity
  8
caminho
  6
ByLayer
 62
  256
370
   -1
100
AcDbLine
 10
4.54839883331591
 20
10.04384136766657
 11
3.353565585711952
 21
10.04384136766657
  0
LINE
  5
133
100
AcDbEntity
  8
caminho
  6
ByLayer
 62
  256
370
   -1
100
AcDbLine
 10
4.54839883331591
 20
7.741314570610522
 11
3.343524970185868
 21
7.741314570610522
  0
LINE
  5
134
100
AcDbEntity
  8
caminho
  6
ByLayer
 62
  256
370
   -1
100
AcDbLine
 10
4.555055761409704
 20
5.445517789955963
 11
3.356356876828204
 21
5.445517789955963
  0
LINE
  5
135
100
AcDbEntity
  8
caminho
  6
ByLayer
 62
  256
370
   -1
100
AcDbLine
 10
4.556690951151438
 20
3.134932728020853
 11
3.338041045610937
 21
3.134932728020853
  0
LINE
  5
136
100
AcDbEntity
  8
caminho
  6
ByLayer
 62
  256
370
   -1
100
AcDbLine
 10
4.543068772563891
 20
0.9345741474988576
 11
3.36187089169728
 21
0.9345741474988576
  0
LINE
  5
137
100
AcDbEntity
  8
caminho
  6
ByLayer
 62
  256
370
   -1
100
AcDbLine
 10
5.839452807398938
 20
16.93053208478022
 11
5.839452807398938
 21
17.15167463179406
  0
LINE
  5
138
100
AcDbEntity
  8
caminho
  6
ByLayer
 62
  256
370
   -1
100
AcDbLine
 10
8.242481853979488
 20
6.187569480411194
 11
8.242481853979488
 21
5.536847228781235
  0
LINE
  5
139
100
AcDbEntity
  8
caminho
  6
ByLayer
 62
  256
370
   -1
100
AcDbLine
 10
8.242481853979488
 20
5.536847228781235
 11
8.242481853979488
 21
4.90895733685759
  0
LINE
  5
13A
100
AcDbEntity
  8
caminho
  6
ByLayer
 62
  256
370
   -1
100
AcDbLine
 10
8.242481853979488
 20
4.90895733685759
 11
8.242481853979488
 21
4.326732164346573
  0
LINE
  5
13B
100
AcDbEntity
  8
caminho
  6
ByLayer
 62
  256
370
   -1
100
AcDbLine
 10
8.242481853979488
 20
4.326732164346573
 11
8.242481853979488
 21
3.710258452276085
  0
LINE
  5
13C
100
AcDbEntity
  8
caminho
  6
ByLayer
 62
  256
370
   -1
100
AcDbLine
 10
8.242481853979488
 20
3.710258452276085
 11
8.242481853979488
 21
3.116617099911911
  0
LINE
  5
13D
100
AcDbEntity
  8
caminho
  6
ByLayer
 62
  256
370
   -1
100
AcDbLine
 10
8.242481853979488
 20
3.116617099911911
 11
8.242481853979488
 21
2.511559567694581
  0
LINE
  5
13E
100
AcDbEntity
  8
caminho
  6
ByLayer
 62
  256
370
   -1
100
AcDbLine
 10
8.242481853979488
 20
2.511559567694581
 11
8.242481853979488
 21
1.917918215330407
  0
LINE
  5
13F
100
AcDbEntity
  8
caminho
  6
ByLayer
 62
  256
370
   -1
100
AcDbLine
 10
6.080495165985505
 20
5.519672796307231
 11
6.080495165985505
 21
4.899816492978611
  0
LINE
  5
140
100
AcDbEntity
  8
caminho
  6
ByLayer
 62
  256
370
   -1
100
AcDbLine
 10
6.080495165985505
 20
4.899816492978611
 11
6.080495165985505
 21
4.309477156475164
  0
LINE
  5
141
100
AcDbEntity
  8
caminho
  6
ByLayer
 62
  256
370
   -1
100
AcDbLine
 10
6.080495165985505
 20
4.309477156475164
 11
6.080495165985505
 21
3.719137819971717
  0
LINE
  5
142
100
AcDbEntity
  8
caminho
  6
ByLayer
 62
  256
370
   -1
100
AcDbLine
 10
6.080495165985505
 20
3.719137819971717
 11
6.080495165985505
 21
3.114040000055684
  0
LINE
  5
143
100
AcDbEntity
  8
caminho
  6
ByLayer
 62
  256
370
   -1
100
AcDbLine
 10
6.080495165985505
 20
3.114040000055684
 11
6.080495165985505
 21
2.50894218013965
  0
LINE
  5
144
100
AcDbEntity
  8
caminho
  6
ByLayer
 62
  256
370
   -1
100
AcDbLine
 10
6.080495165985505
 20
2.50894218013965
 11
6.080495165985505
 21
1.889085876811031
  0
LWPOLYLINE
  5
145
100
AcDbEntity
  8
predio
  6
ByLayer
 62
  256
370
   -1
100
AcDbPolyline
 90
    4
 70
    1
 43
0
 10
6.036382481767101
 20
14.40470105555798
 10
6.145117002292554
 20
14.40470105555798
 10
6.145117002292554
 20
14.31150003796473
 10
6.036382481767101
 20
14.31150003796473
  0
LINE
  5
146
100
AcDbEntity
  8
caminho
  6
ByLayer
 62
  256
370
   -1
100
AcDbLine
 10
10.09190299019076
 20
6.352053378387154
 11
9.03421675915571
 21
6.352053378387154
  0
LINE
  5
147
100
AcDbEntity
  8
caminho
  6
ByLayer
 62
  256
370
   -1
100
AcDbLine
 10
9.03421675915571
 20
6.352053378387154
 11
9.03421675915571
 21
7.743841367666619
  0
LINE
  5
148
100
AcDbEntity
  8
caminho
  6
ByLayer
 62
  256
370
   -1
100
AcDbLine
 10
5.839452807398938
 20
7.743841367666619
 11
9.03421675915571
 21
7.743841367666619
  0
LINE
  5
149
100
AcDbEntity
  8
caminho
  6
ByLayer
 62
  256
370
   -1
100
AcDbLine
 10
6.080495165985505
 20
7.237858026901655
 11
5.65170970685449
 21
7.237858026901655
  0
LINE
  5
14A
100
AcDbEntity
  8
caminho
  6
ByLayer
 62
  256
370
   -1
100
AcDbLine
 10
6.080495165985505
 20
6.525123966239567
 11
8.242481853979488
 21
6.525123966239567
  0
LINE
  5
14B
100
AcDbEntity
  8
caminho
  6
ByLayer
 62
  256
370
   -1
100
AcDbLine
 10
8.242481853979488
 20
6.187569480411194
 11
8.242481853979488
 21
6.525123966239567
  0
LINE
  5
14C
100
AcDbEntity
  8
caminho
  6
ByLayer
 62
  256
370
   -1
100
AcDbLine
 10
4.546842687767437
 20
14.64384136766671
 11
5.440587318455305
 21
14.64384136766671
  0
LINE
  5
14D
100
AcDbEntity
  8
caminho
  6
ByLayer
 62
  256
370
   -1
100
AcDbLine
 10
4.556690951151432
 20
12.32779179807635
 11
5.440587318455305
 21
12.32779179807635
  0
LINE
  5
14E
100
AcDbEntity
  8
caminho
  6
ByLayer
 62
  256
370
   -1
100
AcDbLine
 10
4.54839883331591
 20
10.04384136766657
 11
5.440587318455305
 21
10.04384136766657
  0
LINE
  5
14F
100
AcDbEntity
  8
caminho
  6
ByLayer
 62
  256
370
   -1
100
AcDbLine
 10
4.545612891076598
 20
7.741314570610522
 11
5.440587318455305
 21
7.741314570610522
  0
LINE
  5
150
100
AcDbEntity
  8
caminho
  6
ByLayer
 62
  256
370
   -1
100
AcDbLine
 10
4.555055761409704
 20
5.445517789955963
 11
5.440587318455305
 21
5.445517789955963
  0
LINE
  5
151
100
AcDbEntity
  8
caminho
  6
ByLayer
 62
  256
370
   -1
100
AcDbLine
 10
4.556690951151438
 20
3.134932728020853
 11
5.440587318455305
 21
3.134932728020853
  0
LINE
  5
152
100
AcDbEntity
  8
caminho
  6
ByLayer
 62
  256
370
   -1
100
AcDbLine
 10
5.65170970685449
 20
7.237858026901655
 11
5.440587318455305
 21
7.237858026901655
  0
LINE
  5
153
100
AcDbEntity
  8
caminho
  6
ByLayer
 62
  256
370
   -1
100
AcDbLine
 10
5.440587318455305
 20
0.9345741474988576
 11
5.440587318455305
 21
0.3142221349522857
  0
LINE
  5
154
100
AcDbEntity
  8
caminho
  6
ByLayer
 62
  256
370
   -1
100
AcDbLine
 10
5.440587318455305
 20
0.9345741474988576
 11
4.543068772563891
 21
0.9345741474988576
  0
LINE
  5
155
100
AcDbEntity
  8
caminho
  6
ByLayer
 62
  256
370
   -1
100
AcDbLine
 10
5.440587318455305
 20
14.64384136766671
 11
5.839452807398938
 21
14.64384136766671
  0
LINE
  5
156
100
AcDbEntity
  8
caminho
  6
ByLayer
 62
  256
370
   -1
100
AcDbLine
 10
2.243289478713085
 20
16.93053208478022
 11
2.243289478713085
 21
14.64384136766671
  0
LINE
  5
157
100
AcDbEntity
  8
caminho
  6
ByLayer
 62
  256
370
   -1
100
AcDbLine
 10
2.243289478713085
 20
14.64384136766671
 11
2.243289478713085
 21
12.32779179807635
  0
LINE
  5
158
100
AcDbEntity
  8
caminho
  6
ByLayer
 62
  256
370
   -1
100
AcDbLine
 10
2.243289478713085
 20
12.32779179807635
 11
2.243289478713085
 21
10.04384136766657
  0
LINE
  5
159
100
AcDbEntity
  8
caminho
  6
ByLayer
 62
  256
370
   -1
100
AcDbLine
 10
2.243289478713085
 20
10.04384136766657
 11
2.243289478713085
 21
7.741314570610522
  0
LINE
  5
15A
100
AcDbEntity
  8
caminho
  6
ByLayer
 62
  256
370
   -1
100
AcDbLine
 10
2.243289478713085
 20
7.741314570610522
 11
2.243289478713085
 21
5.445517789955963
  0
LINE
  5
15B
100
AcDbEntity
  8
caminho
  6
ByLayer
 62
  256
370
   -1
100
AcDbLine
 10
2.243289478713085
 20
5.445517789955963
 11
2.243289478713085
 21
3.134932728020853
  0
LINE
  5
15C
100
AcDbEntity
  8
caminho
  6
ByLayer
 62
  256
370
   -1
100
AcDbLine
 10
2.243289478713085
 20
3.134932728020853
 11
2.243289478713085
 21
0.9345741474988576
  0
LINE
  5
15D
100
AcDbEntity
  8
caminho
  6
ByLayer
 62
  256
370
   -1
100
AcDbLine
 10
3.350175734657042
 20
16.93053208478022
 11
2.243289478713085
 21
16.93053208478022
  0
LINE
  5
15E
100
AcDbEntity
  8
caminho
  6
ByLayer
 62
  256
370
   -1
100
AcDbLine
 10
2.243289478713085
 20
16.93053208478022
 11
1.141066903527534
 21
16.93053208478022
  0
LINE
  5
15F
100
AcDbEntity
  8
caminho
  6
ByLayer
 62
  256
370
   -1
100
AcDbLine
 10
3.34714882883985
 20
14.64384136766671
 11
2.243289478713085
 21
14.64384136766671
  0
LINE
  5
160
100
AcDbEntity
  8
caminho
  6
ByLayer
 62
  256
370
   -1
100
AcDbLine
 10
2.243289478713085
 20
14.64384136766671
 11
1.149479216983404
 21
14.64384136766671
  0
LINE
  5
161
100
AcDbEntity
  8
caminho
  6
ByLayer
 62
  256
370
   -1
100
AcDbLine
 10
3.364533434861813
 20
12.32779179807635
 11
1.10993131377785
 21
12.32779179807635
  0
LINE
  5
162
100
AcDbEntity
  8
caminho
  6
ByLayer
 62
  256
370
   -1
100
AcDbLine
 10
3.353565585711952
 20
10.04384136766657
 11
1.106886255943984
 21
10.04384136766657
  0
LINE
  5
163
100
AcDbEntity
  8
caminho
  6
ByLayer
 62
  256
370
   -1
100
AcDbLine
 10
3.343524970185868
 20
7.741314570610522
 11
2.243289478713085
 21
7.741314570610522
  0
LINE
  5
164
100
AcDbEntity
  8
caminho
  6
ByLayer
 62
  256
370
   -1
100
AcDbLine
 10
2.243289478713085
 20
7.741314570610522
 11
1.121644739356571
 21
7.741314570610522
  0
LINE
  5
165
100
AcDbEntity
  8
caminho
  6
ByLayer
 62
  256
370
   -1
100
AcDbLine
 10
3.356356876828204
 20
5.445517789955963
 11
2.243289478713085
 21
5.445517789955963
  0
LINE
  5
166
100
AcDbEntity
  8
caminho
  6
ByLayer
 62
  256
370
   -1
100
AcDbLine
 10
2.243289478713085
 20
5.445517789955963
 11
1.116296898401439
 21
5.445517789955963
  0
LINE
  5
167
100
AcDbEntity
  8
caminho
  6
ByLayer
 62
  256
370
   -1
100
AcDbLine
 10
3.338041045610937
 20
3.134932728020853
 11
2.243289478713085
 21
3.134932728020853
  0
LINE
  5
168
100
AcDbEntity
  8
caminho
  6
ByLayer
 62
  256
370
   -1
100
AcDbLine
 10
2.243289478713085
 20
3.134932728020853
 11
1.11841221111899
 21
3.134932728020853
  0
LINE
  5
169
100
AcDbEntity
  8
caminho
  6
ByLayer
 62
  256
370
   -1
100
AcDbLine
 10
3.36187089169728
 20
0.9345741474988576
 11
2.243289478713085
 21
0.9345741474988576
  0
LINE
  5
16A
100
AcDbEntity
  8
caminho
  6
ByLayer
 62
  256
370
   -1
100
AcDbLine
 10
2.243289478713085
 20
0.9345741474988576
 11
1.121511144953965
 21
0.9345741474988576
  0
LINE
  5
16B
100
AcDbEntity
  8
caminho
  6
ByLayer
 62
  256
370
   -1
100
AcDbLine
 10
5.440587318455305
 20
0.9345741474988576
 11
5.440587318455305
 21
3.134932728020853
  0
LINE
  5
16C
100
AcDbEntity
  8
caminho
  6
ByLayer
 62
  256
370
   -1
100
AcDbLine
 10
5.440587318455305
 20
3.134932728020853
 11
5.440587318455305
 21
5.445517789955963
  0
LINE
  5
16D
100
AcDbEntity
  8
caminho
  6
ByLayer
 62
  256
370
   -1
100
AcDbLine
 10
5.440587318455305
 20
5.445517789955963
 11
5.440587318455305
 21
7.237858026901655
  0
LINE
  5
16E
100
AcDbEntity
  8
caminho
  6
ByLayer
 62
  256
370
   -1
100
AcDbLine
 10
5.440587318455305
 20
7.237858026901655
 11
5.440587318455305
 21
7.741314570610522
  0
LINE
  5
16F
100
AcDbEntity
  8
caminho
  6
ByLayer
 62
  256
370
   -1
100
AcDbLine
 10
5.440587318455305
 20
7.741314570610522
 11
5.440587318455305
 21
10.04384136766657
  0
LINE
  5
170
100
AcDbEntity
  8
caminho
  6
ByLayer
 62
  256
370
   -1
100
AcDbLine
 10
5.440587318455305
 20
10.04384136766657
 11
5.440587318455305
 21
12.32779179807635
  0
LINE
  5
171
100
AcDbEntity
  8
caminho
  6
ByLayer
 62
  256
370
   -1
100
AcDbLine
 10
5.440587318455305
 20
12.32779179807635
 11
5.440587318455305
 21
14.64384136766671
  0
LINE
  5
172
100
AcDbEntity
  8
caminho
  6
ByLayer
 62
  256
370
   -1
100
AcDbLine
 10
5.440587318455305
 20
14.64384136766671
 11
5.440587318455305
 21
16.93053208478022
  0
LINE
  5
173
100
AcDbEntity
  8
caminho
  6
ByLayer
 62
  256
370
   -1
100
AcDbLine
 10
6.080495165985505
 20
7.237858026901655
 11
6.080495165985505
 21
6.525123966239567
  0
LINE
  5
174
100
AcDbEntity
  8
caminho
  6
ByLayer
 62
  256
370
   -1
100
AcDbLine
 10
6.080495165985505
 20
6.525123966239567
 11
6.080495165985505
 21
5.519672796307231
  0
ENDSEC
  0
SECTION
  2
OBJECTS
  0
DICTIONARY
  5
C
330
0
100
AcDbDictionary
281
    1
  3
ACAD_GROUP
350
D
  0
DICTIONARY
  5
D
330
C
100
AcDbDictionary
281
    1
  0
ENDSEC
  0
EOF
